M48
; DRILL file {KiCad (6.0.1)} date Sun Feb 19 21:21:00 2023
; FORMAT={-:-/ absolute / metric / decimal}
; #@! TF.CreationDate,2023-02-19T21:21:00+01:00
; #@! TF.GenerationSoftware,Kicad,Pcbnew,(6.0.1)
; #@! TF.FileFunction,Plated,1,2,PTH
FMAT,2
METRIC
; #@! TA.AperFunction,Plated,PTH,ComponentDrill
T1C0.750
; #@! TA.AperFunction,Plated,PTH,ViaDrill
T2C0.800
; #@! TA.AperFunction,Plated,PTH,ComponentDrill
T3C0.800
; #@! TA.AperFunction,Plated,PTH,ComponentDrill
T4C0.900
; #@! TA.AperFunction,Plated,PTH,ComponentDrill
T5C1.000
; #@! TA.AperFunction,Plated,PTH,ComponentDrill
T6C1.300
; #@! TA.AperFunction,Plated,PTH,ComponentDrill
T7C1.500
%
G90
G05
T1
X292.1Y-106.68
X293.37Y-106.68
X294.64Y-106.68
X299.72Y-106.68
X300.99Y-106.68
X302.26Y-106.68
X307.34Y-106.68
X308.61Y-106.68
X309.88Y-106.68
T2
X120.65Y-160.655
X133.35Y-135.89
X143.51Y-133.985
X156.21Y-132.08
X161.29Y-152.4
X172.085Y-150.495
X182.245Y-148.59
X205.75Y-138.42
X215.9Y-135.89
X225.425Y-133.985
X235.585Y-132.08
X248.92Y-152.4
X257.175Y-150.495
X265.43Y-148.59
X281.305Y-157.48
X281.305Y-160.655
X289.56Y-160.655
X292.735Y-157.48
X295.91Y-174.625
X302.26Y-172.72
X309.88Y-173.99
X310.515Y-152.4
T3
X290.815Y-115.56
X290.815Y-123.18
X290.815Y-138.42
X290.815Y-146.04
X293.355Y-115.56
X293.355Y-123.18
X293.355Y-138.42
X293.355Y-146.04
X295.895Y-115.56
X295.895Y-123.18
X295.895Y-138.42
X295.895Y-146.04
X298.435Y-115.56
X298.435Y-123.18
X298.435Y-138.42
X298.435Y-146.04
X298.45Y-131.445
X300.975Y-115.56
X300.975Y-123.18
X300.975Y-138.42
X300.975Y-146.04
X303.515Y-115.56
X303.515Y-123.18
X303.515Y-138.42
X303.515Y-146.04
X303.53Y-127.0
X306.055Y-115.56
X306.055Y-123.18
X306.055Y-138.42
X306.055Y-146.04
X306.07Y-131.445
X308.595Y-115.56
X308.595Y-123.18
X308.595Y-138.42
X308.595Y-146.04
X311.15Y-127.0
X312.42Y-123.19
X312.42Y-138.43
X312.42Y-146.05
X320.04Y-123.19
T4
X78.74Y-101.6
X78.74Y-104.14
X78.74Y-114.3
X78.74Y-116.84
X78.74Y-127.0
X78.74Y-129.54
X78.74Y-142.24
X78.74Y-144.78
X88.9Y-101.6
X88.9Y-104.14
X88.9Y-114.3
X88.9Y-116.84
X88.9Y-127.0
X88.9Y-129.54
X88.9Y-142.24
X88.9Y-144.78
X99.06Y-101.6
X99.06Y-104.14
X99.06Y-114.3
X99.06Y-116.84
X99.06Y-127.0
X99.06Y-129.54
X99.06Y-142.24
X99.06Y-144.78
X109.22Y-101.6
X109.22Y-104.14
X109.22Y-114.3
X109.22Y-116.84
X109.22Y-127.0
X109.22Y-129.54
X109.22Y-142.24
X109.22Y-144.78
X119.38Y-101.6
X119.38Y-104.14
X119.38Y-114.3
X119.38Y-116.84
X119.38Y-127.0
X119.38Y-129.54
X119.38Y-142.24
X119.38Y-144.78
X129.54Y-101.6
X129.54Y-104.14
X129.54Y-114.3
X129.54Y-116.84
X129.54Y-127.0
X129.54Y-129.54
X129.54Y-142.24
X129.54Y-144.78
X139.7Y-101.6
X139.7Y-104.14
X139.7Y-114.3
X139.7Y-116.84
X139.7Y-127.0
X139.7Y-129.54
X139.7Y-142.24
X139.7Y-144.78
X149.86Y-101.6
X149.86Y-104.14
X149.86Y-114.3
X149.86Y-116.84
X149.86Y-127.0
X149.86Y-129.54
X149.86Y-142.24
X149.86Y-144.78
X160.02Y-101.6
X160.02Y-104.14
X160.02Y-114.3
X160.02Y-116.84
X160.02Y-127.0
X160.02Y-129.54
X160.02Y-142.24
X160.02Y-144.78
X170.18Y-101.6
X170.18Y-104.14
X170.18Y-114.3
X170.18Y-116.84
X170.18Y-127.0
X170.18Y-129.54
X170.18Y-142.24
X170.18Y-144.78
X180.34Y-101.6
X180.34Y-104.14
X180.34Y-114.3
X180.34Y-116.84
X180.34Y-127.0
X180.34Y-129.54
X180.34Y-142.24
X180.34Y-144.78
X190.5Y-101.6
X190.5Y-104.14
X190.5Y-114.3
X190.5Y-116.84
X190.5Y-127.0
X190.5Y-129.54
X190.5Y-142.24
X190.5Y-144.78
X200.66Y-101.6
X200.66Y-104.14
X200.66Y-114.3
X200.66Y-116.84
X200.66Y-127.0
X200.66Y-129.54
X200.66Y-142.24
X200.66Y-144.78
X210.82Y-101.6
X210.82Y-104.14
X210.82Y-114.3
X210.82Y-116.84
X210.82Y-127.0
X210.82Y-129.54
X210.82Y-142.24
X210.82Y-144.78
X220.98Y-101.6
X220.98Y-104.14
X220.98Y-114.3
X220.98Y-116.84
X220.98Y-127.0
X220.98Y-129.54
X220.98Y-142.24
X220.98Y-144.78
X231.14Y-101.6
X231.14Y-104.14
X231.14Y-114.3
X231.14Y-116.84
X231.14Y-127.0
X231.14Y-129.54
X231.14Y-142.24
X231.14Y-144.78
X241.3Y-101.6
X241.3Y-104.14
X241.3Y-114.3
X241.3Y-116.84
X241.3Y-127.0
X241.3Y-129.54
X241.3Y-142.24
X241.3Y-144.78
X251.46Y-101.6
X251.46Y-104.14
X251.46Y-114.3
X251.46Y-116.84
X251.46Y-127.0
X251.46Y-129.54
X251.46Y-142.24
X251.46Y-144.78
X261.62Y-101.6
X261.62Y-104.14
X261.62Y-114.3
X261.62Y-116.84
X261.62Y-127.0
X261.62Y-129.54
X261.62Y-142.24
X261.62Y-144.78
X271.78Y-101.6
X271.78Y-104.14
X271.78Y-114.3
X271.78Y-116.84
X271.78Y-127.0
X271.78Y-129.54
X271.78Y-142.24
X271.78Y-144.78
T5
X74.03Y-167.68
X74.03Y-170.18
X74.03Y-172.68
X88.53Y-167.68
X88.53Y-172.68
X113.33Y-167.68
X113.33Y-170.18
X113.33Y-172.68
X271.78Y-167.64
X271.78Y-170.18
X274.32Y-167.64
X274.32Y-170.18
X276.86Y-167.64
X276.86Y-170.18
X279.4Y-167.64
X279.4Y-170.18
X281.94Y-167.64
X281.94Y-170.18
X297.18Y-167.64
X297.18Y-170.18
X299.72Y-167.64
X299.72Y-170.18
X302.26Y-167.64
X302.26Y-170.18
X304.8Y-167.64
X304.8Y-170.18
X307.34Y-167.64
X307.34Y-170.18
T6
X158.86Y-167.64
X158.86Y-172.64
X171.36Y-167.64
X171.36Y-172.64
X179.18Y-167.68
X179.18Y-172.68
X191.68Y-167.68
X191.68Y-172.68
X199.5Y-167.68
X199.5Y-172.68
X212.0Y-167.68
X212.0Y-172.68
X219.82Y-167.68
X219.82Y-172.68
X232.32Y-167.68
X232.32Y-172.68
X240.14Y-167.68
X240.14Y-172.68
X252.64Y-167.68
X252.64Y-172.68
T7
X80.88Y-164.58G85X82.18Y-164.58
G05
X80.88Y-175.78G85X82.18Y-175.78
G05
T0
M30
