%TF.GenerationSoftware,KiCad,Pcbnew,(6.0.1)*%
%TF.CreationDate,2023-02-19T21:20:49+01:00*%
%TF.ProjectId,fm_radio_panel,666d5f72-6164-4696-9f5f-70616e656c2e,rev?*%
%TF.SameCoordinates,Original*%
%TF.FileFunction,Soldermask,Bot*%
%TF.FilePolarity,Negative*%
%FSLAX46Y46*%
G04 Gerber Fmt 4.6, Leading zero omitted, Abs format (unit mm)*
G04 Created by KiCad (PCBNEW (6.0.1)) date 2023-02-19 21:20:49*
%MOMM*%
%LPD*%
G01*
G04 APERTURE LIST*
G04 Aperture macros list*
%AMRoundRect*
0 Rectangle with rounded corners*
0 $1 Rounding radius*
0 $2 $3 $4 $5 $6 $7 $8 $9 X,Y pos of 4 corners*
0 Add a 4 corners polygon primitive as box body*
4,1,4,$2,$3,$4,$5,$6,$7,$8,$9,$2,$3,0*
0 Add four circle primitives for the rounded corners*
1,1,$1+$1,$2,$3*
1,1,$1+$1,$4,$5*
1,1,$1+$1,$6,$7*
1,1,$1+$1,$8,$9*
0 Add four rect primitives between the rounded corners*
20,1,$1+$1,$2,$3,$4,$5,0*
20,1,$1+$1,$4,$5,$6,$7,0*
20,1,$1+$1,$6,$7,$8,$9,0*
20,1,$1+$1,$8,$9,$2,$3,0*%
G04 Aperture macros list end*
%ADD10O,3.048000X1.850000*%
%ADD11C,4.000000*%
%ADD12C,1.800000*%
%ADD13R,2.000000X2.000000*%
%ADD14C,2.000000*%
%ADD15R,3.200000X2.000000*%
%ADD16C,16.000000*%
%ADD17C,3.200000*%
%ADD18C,1.600000*%
%ADD19O,1.600000X1.600000*%
%ADD20R,1.800000X1.800000*%
%ADD21C,1.700000*%
%ADD22RoundRect,0.250000X-0.600000X0.600000X-0.600000X-0.600000X0.600000X-0.600000X0.600000X0.600000X0*%
%ADD23R,1.050000X1.500000*%
%ADD24O,1.050000X1.500000*%
%ADD25R,1.600000X1.600000*%
G04 APERTURE END LIST*
D10*
%TO.C,SW5*%
X240140000Y-167680000D03*
X252640000Y-167680000D03*
X240140000Y-172680000D03*
X252640000Y-172680000D03*
%TD*%
%TO.C,SW4*%
X219820000Y-167680000D03*
X232320000Y-167680000D03*
X219820000Y-172680000D03*
X232320000Y-172680000D03*
%TD*%
%TO.C,SW3*%
X199500000Y-167680000D03*
X212000000Y-167680000D03*
X199500000Y-172680000D03*
X212000000Y-172680000D03*
%TD*%
%TO.C,SW2*%
X179180000Y-167680000D03*
X191680000Y-167680000D03*
X179180000Y-172680000D03*
X191680000Y-172680000D03*
%TD*%
D11*
%TO.C,SW6*%
X120330000Y-174580000D03*
X120330000Y-165780000D03*
D12*
X113330000Y-172680000D03*
X113330000Y-170180000D03*
X113330000Y-167680000D03*
%TD*%
D13*
%TO.C,RV1*%
X74030000Y-167680000D03*
D14*
X74030000Y-172680000D03*
X74030000Y-170180000D03*
D15*
X81530000Y-164580000D03*
X81530000Y-175780000D03*
D14*
X88530000Y-172680000D03*
X88530000Y-167680000D03*
%TD*%
D16*
%TO.C,REF\u002A\u002A*%
X330200000Y-170180000D03*
%TD*%
D17*
%TO.C,H4*%
X45720000Y-104140000D03*
%TD*%
%TO.C,H3*%
X355600000Y-170180000D03*
%TD*%
%TO.C,H2*%
X45720000Y-170180000D03*
%TD*%
%TO.C,H1*%
X355600000Y-104140000D03*
%TD*%
D18*
%TO.C,R1*%
X312420000Y-138430000D03*
D19*
X312420000Y-146050000D03*
%TD*%
D18*
%TO.C,R2*%
X312420000Y-123190000D03*
D19*
X320040000Y-123190000D03*
%TD*%
D12*
%TO.C,D30*%
X149860000Y-114300000D03*
D20*
X149860000Y-116840000D03*
%TD*%
D12*
%TO.C,D55*%
X210820000Y-127000000D03*
D20*
X210820000Y-129540000D03*
%TD*%
D12*
%TO.C,D65*%
X241300000Y-101600000D03*
D20*
X241300000Y-104140000D03*
%TD*%
D12*
%TO.C,D47*%
X190500000Y-127000000D03*
D20*
X190500000Y-129540000D03*
%TD*%
D12*
%TO.C,D2*%
X78740000Y-114300000D03*
D20*
X78740000Y-116840000D03*
%TD*%
D12*
%TO.C,D31*%
X149860000Y-127000000D03*
D20*
X149860000Y-129540000D03*
%TD*%
D12*
%TO.C,D53*%
X210820000Y-101600000D03*
D20*
X210820000Y-104140000D03*
%TD*%
D12*
%TO.C,D44*%
X180340000Y-142240000D03*
D20*
X180340000Y-144780000D03*
%TD*%
D12*
%TO.C,D13*%
X109220000Y-101600000D03*
D20*
X109220000Y-104140000D03*
%TD*%
D10*
%TO.C,SW1*%
X171360000Y-167640000D03*
X158860000Y-167640000D03*
X171360000Y-172640000D03*
X158860000Y-172640000D03*
%TD*%
D12*
%TO.C,D8*%
X88900000Y-142240000D03*
D20*
X88900000Y-144780000D03*
%TD*%
D12*
%TO.C,D42*%
X180340000Y-114300000D03*
D20*
X180340000Y-116840000D03*
%TD*%
D12*
%TO.C,D35*%
X160020000Y-127000000D03*
D20*
X160020000Y-129540000D03*
%TD*%
D12*
%TO.C,D34*%
X160020000Y-114300000D03*
D20*
X160020000Y-116840000D03*
%TD*%
D12*
%TO.C,D51*%
X200660000Y-127000000D03*
D20*
X200660000Y-129540000D03*
%TD*%
D12*
%TO.C,D45*%
X190500000Y-101600000D03*
D20*
X190500000Y-104140000D03*
%TD*%
D12*
%TO.C,D69*%
X251460000Y-101600000D03*
D20*
X251460000Y-104140000D03*
%TD*%
D12*
%TO.C,D19*%
X119380000Y-127000000D03*
D20*
X119380000Y-129540000D03*
%TD*%
D12*
%TO.C,D3*%
X78740000Y-127000000D03*
D20*
X78740000Y-129540000D03*
%TD*%
D21*
%TO.C,J2*%
X281940000Y-170180000D03*
X281940000Y-167640000D03*
X279400000Y-170180000D03*
X279400000Y-167640000D03*
X276860000Y-170180000D03*
X276860000Y-167640000D03*
X274320000Y-170180000D03*
X274320000Y-167640000D03*
X271780000Y-170180000D03*
D22*
X271780000Y-167640000D03*
%TD*%
D23*
%TO.C,Q2*%
X302260000Y-106680000D03*
D24*
X300990000Y-106680000D03*
X299720000Y-106680000D03*
%TD*%
D12*
%TO.C,D1*%
X78740000Y-101600000D03*
D20*
X78740000Y-104140000D03*
%TD*%
D12*
%TO.C,D59*%
X220980000Y-127000000D03*
D20*
X220980000Y-129540000D03*
%TD*%
D12*
%TO.C,D54*%
X210820000Y-114300000D03*
D20*
X210820000Y-116840000D03*
%TD*%
D12*
%TO.C,D26*%
X139700000Y-114300000D03*
D20*
X139700000Y-116840000D03*
%TD*%
D12*
%TO.C,D48*%
X190500000Y-142240000D03*
D20*
X190500000Y-144780000D03*
%TD*%
D12*
%TO.C,D17*%
X119380000Y-101600000D03*
D20*
X119380000Y-104140000D03*
%TD*%
D12*
%TO.C,D38*%
X170180000Y-114300000D03*
D20*
X170180000Y-116840000D03*
%TD*%
D12*
%TO.C,D76*%
X261620000Y-142240000D03*
D20*
X261620000Y-144780000D03*
%TD*%
D12*
%TO.C,D43*%
X180340000Y-127000000D03*
D20*
X180340000Y-129540000D03*
%TD*%
D23*
%TO.C,Q3*%
X294640000Y-106680000D03*
D24*
X293370000Y-106680000D03*
X292100000Y-106680000D03*
%TD*%
D12*
%TO.C,D78*%
X271780000Y-114300000D03*
D20*
X271780000Y-116840000D03*
%TD*%
D12*
%TO.C,D15*%
X109220000Y-127000000D03*
D20*
X109220000Y-129540000D03*
%TD*%
D12*
%TO.C,D6*%
X88900000Y-114300000D03*
D20*
X88900000Y-116840000D03*
%TD*%
D12*
%TO.C,D18*%
X119380000Y-114300000D03*
D20*
X119380000Y-116840000D03*
%TD*%
D12*
%TO.C,D14*%
X109220000Y-114300000D03*
D20*
X109220000Y-116840000D03*
%TD*%
D18*
%TO.C,R3*%
X303530000Y-127000000D03*
D19*
X311150000Y-127000000D03*
%TD*%
D12*
%TO.C,D61*%
X231140000Y-101600000D03*
D20*
X231140000Y-104140000D03*
%TD*%
D12*
%TO.C,D49*%
X200660000Y-101600000D03*
D20*
X200660000Y-104140000D03*
%TD*%
D12*
%TO.C,D23*%
X129540000Y-127000000D03*
D20*
X129540000Y-129540000D03*
%TD*%
D12*
%TO.C,D32*%
X149860000Y-142240000D03*
D20*
X149860000Y-144780000D03*
%TD*%
D12*
%TO.C,D68*%
X241300000Y-142240000D03*
D20*
X241300000Y-144780000D03*
%TD*%
D12*
%TO.C,D57*%
X220980000Y-101600000D03*
D20*
X220980000Y-104140000D03*
%TD*%
D12*
%TO.C,D66*%
X241300000Y-114300000D03*
D20*
X241300000Y-116840000D03*
%TD*%
D12*
%TO.C,D21*%
X129540000Y-101600000D03*
D20*
X129540000Y-104140000D03*
%TD*%
D21*
%TO.C,J1*%
X307340000Y-170180000D03*
X307340000Y-167640000D03*
X304800000Y-170180000D03*
X304800000Y-167640000D03*
X302260000Y-170180000D03*
X302260000Y-167640000D03*
X299720000Y-170180000D03*
X299720000Y-167640000D03*
X297180000Y-170180000D03*
D22*
X297180000Y-167640000D03*
%TD*%
D12*
%TO.C,D74*%
X261620000Y-114300000D03*
D20*
X261620000Y-116840000D03*
%TD*%
D12*
%TO.C,D9*%
X99060000Y-101600000D03*
D20*
X99060000Y-104140000D03*
%TD*%
D12*
%TO.C,D12*%
X99060000Y-142240000D03*
D20*
X99060000Y-144780000D03*
%TD*%
D12*
%TO.C,D4*%
X78740000Y-142240000D03*
D20*
X78740000Y-144780000D03*
%TD*%
D18*
%TO.C,R4*%
X298450000Y-131445000D03*
D19*
X306070000Y-131445000D03*
%TD*%
D25*
%TO.C,U1*%
X308595000Y-146040000D03*
D19*
X306055000Y-146040000D03*
X303515000Y-146040000D03*
X300975000Y-146040000D03*
X298435000Y-146040000D03*
X295895000Y-146040000D03*
X293355000Y-146040000D03*
X290815000Y-146040000D03*
X290815000Y-138420000D03*
X293355000Y-138420000D03*
X295895000Y-138420000D03*
X298435000Y-138420000D03*
X300975000Y-138420000D03*
X303515000Y-138420000D03*
X306055000Y-138420000D03*
X308595000Y-138420000D03*
%TD*%
D23*
%TO.C,Q1*%
X309880000Y-106680000D03*
D24*
X308610000Y-106680000D03*
X307340000Y-106680000D03*
%TD*%
D12*
%TO.C,D20*%
X119380000Y-142240000D03*
D20*
X119380000Y-144780000D03*
%TD*%
D12*
%TO.C,D29*%
X149860000Y-101600000D03*
D20*
X149860000Y-104140000D03*
%TD*%
D12*
%TO.C,D77*%
X271780000Y-101600000D03*
D20*
X271780000Y-104140000D03*
%TD*%
D12*
%TO.C,D22*%
X129540000Y-114300000D03*
D20*
X129540000Y-116840000D03*
%TD*%
D12*
%TO.C,D80*%
X271780000Y-142240000D03*
D20*
X271780000Y-144780000D03*
%TD*%
D12*
%TO.C,D60*%
X220980000Y-142240000D03*
D20*
X220980000Y-144780000D03*
%TD*%
D12*
%TO.C,D75*%
X261620000Y-127000000D03*
D20*
X261620000Y-129540000D03*
%TD*%
D12*
%TO.C,D40*%
X170180000Y-142240000D03*
D20*
X170180000Y-144780000D03*
%TD*%
D12*
%TO.C,D41*%
X180340000Y-101600000D03*
D20*
X180340000Y-104140000D03*
%TD*%
D12*
%TO.C,D36*%
X160020000Y-142240000D03*
D20*
X160020000Y-144780000D03*
%TD*%
D12*
%TO.C,D73*%
X261620000Y-101600000D03*
D20*
X261620000Y-104140000D03*
%TD*%
D12*
%TO.C,D62*%
X231140000Y-114300000D03*
D20*
X231140000Y-116840000D03*
%TD*%
D12*
%TO.C,D27*%
X139700000Y-127000000D03*
D20*
X139700000Y-129540000D03*
%TD*%
D12*
%TO.C,D52*%
X200660000Y-142240000D03*
D20*
X200660000Y-144780000D03*
%TD*%
D12*
%TO.C,D63*%
X231140000Y-127000000D03*
D20*
X231140000Y-129540000D03*
%TD*%
D12*
%TO.C,D25*%
X139700000Y-101600000D03*
D20*
X139700000Y-104140000D03*
%TD*%
D12*
%TO.C,D28*%
X139700000Y-142240000D03*
D20*
X139700000Y-144780000D03*
%TD*%
D12*
%TO.C,D7*%
X88900000Y-127000000D03*
D20*
X88900000Y-129540000D03*
%TD*%
D12*
%TO.C,D46*%
X190500000Y-114300000D03*
D20*
X190500000Y-116840000D03*
%TD*%
D12*
%TO.C,D10*%
X99060000Y-114300000D03*
D20*
X99060000Y-116840000D03*
%TD*%
D12*
%TO.C,D39*%
X170180000Y-127000000D03*
D20*
X170180000Y-129540000D03*
%TD*%
D12*
%TO.C,D11*%
X99060000Y-127000000D03*
D20*
X99060000Y-129540000D03*
%TD*%
D12*
%TO.C,D5*%
X88900000Y-101600000D03*
D20*
X88900000Y-104140000D03*
%TD*%
D12*
%TO.C,D72*%
X251460000Y-142240000D03*
D20*
X251460000Y-144780000D03*
%TD*%
D25*
%TO.C,U2*%
X308595000Y-123180000D03*
D19*
X306055000Y-123180000D03*
X303515000Y-123180000D03*
X300975000Y-123180000D03*
X298435000Y-123180000D03*
X295895000Y-123180000D03*
X293355000Y-123180000D03*
X290815000Y-123180000D03*
X290815000Y-115560000D03*
X293355000Y-115560000D03*
X295895000Y-115560000D03*
X298435000Y-115560000D03*
X300975000Y-115560000D03*
X303515000Y-115560000D03*
X306055000Y-115560000D03*
X308595000Y-115560000D03*
%TD*%
D12*
%TO.C,D33*%
X160020000Y-101600000D03*
D20*
X160020000Y-104140000D03*
%TD*%
D12*
%TO.C,D67*%
X241300000Y-127000000D03*
D20*
X241300000Y-129540000D03*
%TD*%
D12*
%TO.C,D71*%
X251460000Y-127000000D03*
D20*
X251460000Y-129540000D03*
%TD*%
D12*
%TO.C,D70*%
X251460000Y-114300000D03*
D20*
X251460000Y-116840000D03*
%TD*%
D12*
%TO.C,D37*%
X170180000Y-101600000D03*
D20*
X170180000Y-104140000D03*
%TD*%
D12*
%TO.C,D16*%
X109220000Y-142240000D03*
D20*
X109220000Y-144780000D03*
%TD*%
D12*
%TO.C,D79*%
X271780000Y-127000000D03*
D20*
X271780000Y-129540000D03*
%TD*%
D12*
%TO.C,D56*%
X210820000Y-142240000D03*
D20*
X210820000Y-144780000D03*
%TD*%
D12*
%TO.C,D58*%
X220980000Y-114300000D03*
D20*
X220980000Y-116840000D03*
%TD*%
D12*
%TO.C,D64*%
X231140000Y-142240000D03*
D20*
X231140000Y-144780000D03*
%TD*%
D12*
%TO.C,D24*%
X129540000Y-142240000D03*
D20*
X129540000Y-144780000D03*
%TD*%
D12*
%TO.C,D50*%
X200660000Y-114300000D03*
D20*
X200660000Y-116840000D03*
%TD*%
M02*
