%TF.GenerationSoftware,KiCad,Pcbnew,(6.0.9)*%
%TF.CreationDate,2023-01-16T23:19:06+01:00*%
%TF.ProjectId,FM_radio_atmega_8,464d5f72-6164-4696-9f5f-61746d656761,rev?*%
%TF.SameCoordinates,Original*%
%TF.FileFunction,Legend,Bot*%
%TF.FilePolarity,Positive*%
%FSLAX46Y46*%
G04 Gerber Fmt 4.6, Leading zero omitted, Abs format (unit mm)*
G04 Created by KiCad (PCBNEW (6.0.9)) date 2023-01-16 23:19:06*
%MOMM*%
%LPD*%
G01*
G04 APERTURE LIST*
G04 Aperture macros list*
%AMRoundRect*
0 Rectangle with rounded corners*
0 $1 Rounding radius*
0 $2 $3 $4 $5 $6 $7 $8 $9 X,Y pos of 4 corners*
0 Add a 4 corners polygon primitive as box body*
4,1,4,$2,$3,$4,$5,$6,$7,$8,$9,$2,$3,0*
0 Add four circle primitives for the rounded corners*
1,1,$1+$1,$2,$3*
1,1,$1+$1,$4,$5*
1,1,$1+$1,$6,$7*
1,1,$1+$1,$8,$9*
0 Add four rect primitives between the rounded corners*
20,1,$1+$1,$2,$3,$4,$5,0*
20,1,$1+$1,$4,$5,$6,$7,0*
20,1,$1+$1,$6,$7,$8,$9,0*
20,1,$1+$1,$8,$9,$2,$3,0*%
G04 Aperture macros list end*
%ADD10C,0.150000*%
%ADD11C,0.120000*%
%ADD12C,1.400000*%
%ADD13O,1.400000X1.400000*%
%ADD14C,1.600000*%
%ADD15R,1.905000X2.000000*%
%ADD16O,1.905000X2.000000*%
%ADD17R,1.700000X1.700000*%
%ADD18O,1.700000X1.700000*%
%ADD19R,1.600000X1.600000*%
%ADD20C,1.524000*%
%ADD21O,1.600000X1.600000*%
%ADD22RoundRect,0.250000X1.125000X-1.125000X1.125000X1.125000X-1.125000X1.125000X-1.125000X-1.125000X0*%
%ADD23C,2.750000*%
%ADD24R,3.500000X3.500000*%
%ADD25RoundRect,0.750000X1.000000X-0.750000X1.000000X0.750000X-1.000000X0.750000X-1.000000X-0.750000X0*%
%ADD26RoundRect,0.875000X0.875000X-0.875000X0.875000X0.875000X-0.875000X0.875000X-0.875000X-0.875000X0*%
G04 APERTURE END LIST*
D10*
%TO.C,J1*%
X53392380Y-128766666D02*
X54106666Y-128766666D01*
X54249523Y-128719047D01*
X54344761Y-128623809D01*
X54392380Y-128480952D01*
X54392380Y-128385714D01*
X54392380Y-129766666D02*
X54392380Y-129195238D01*
X54392380Y-129480952D02*
X53392380Y-129480952D01*
X53535238Y-129385714D01*
X53630476Y-129290476D01*
X53678095Y-129195238D01*
D11*
X57790000Y-119750000D02*
X55090000Y-119750000D01*
X64290000Y-119750000D02*
X61690000Y-119750000D01*
X64490000Y-120600000D02*
X64490000Y-119550000D01*
X64290000Y-134450000D02*
X64290000Y-119750000D01*
X55090000Y-125650000D02*
X55090000Y-134450000D01*
X55090000Y-134450000D02*
X64290000Y-134450000D01*
X63440000Y-119550000D02*
X64490000Y-119550000D01*
X55090000Y-119750000D02*
X55090000Y-121650000D01*
%TD*%
%LPC*%
D12*
%TO.C,R5*%
X107950000Y-107950000D03*
D13*
X107950000Y-100330000D03*
%TD*%
D14*
%TO.C,C3*%
X76190000Y-106690000D03*
X78690000Y-106690000D03*
%TD*%
%TO.C,C4*%
X101600000Y-105410000D03*
X101600000Y-107910000D03*
%TD*%
D15*
%TO.C,U1*%
X68580000Y-113355000D03*
D16*
X66040000Y-113355000D03*
X63500000Y-113355000D03*
%TD*%
D12*
%TO.C,R3*%
X57150000Y-110490000D03*
D13*
X57150000Y-102870000D03*
%TD*%
D17*
%TO.C,J4*%
X63500000Y-87630000D03*
D18*
X63500000Y-85090000D03*
X66040000Y-87630000D03*
X66040000Y-85090000D03*
X68580000Y-87630000D03*
X68580000Y-85090000D03*
X71120000Y-87630000D03*
X71120000Y-85090000D03*
X73660000Y-87630000D03*
X73660000Y-85090000D03*
%TD*%
D12*
%TO.C,R2*%
X67310000Y-119380000D03*
D13*
X74930000Y-119380000D03*
%TD*%
D17*
%TO.C,J2*%
X124460000Y-91440000D03*
%TD*%
D12*
%TO.C,R1*%
X78740000Y-119380000D03*
D13*
X78740000Y-127000000D03*
%TD*%
D17*
%TO.C,J3*%
X83820000Y-87630000D03*
D18*
X83820000Y-85090000D03*
X86360000Y-87630000D03*
X86360000Y-85090000D03*
X88900000Y-87630000D03*
X88900000Y-85090000D03*
X91440000Y-87630000D03*
X91440000Y-85090000D03*
X93980000Y-87630000D03*
X93980000Y-85090000D03*
%TD*%
D19*
%TO.C,C2*%
X74930000Y-114300000D03*
D14*
X76930000Y-114300000D03*
%TD*%
D12*
%TO.C,R4*%
X105410000Y-105410000D03*
D13*
X105410000Y-97790000D03*
%TD*%
D20*
%TO.C,U4*%
X91440000Y-114300000D03*
X91440000Y-116840000D03*
X91440000Y-119380000D03*
X91440000Y-121920000D03*
X91440000Y-124460000D03*
X113538000Y-118110000D03*
X113538000Y-120650000D03*
%TD*%
D19*
%TO.C,U2*%
X60883800Y-103962200D03*
D21*
X63423800Y-103962200D03*
X65963800Y-103962200D03*
X68503800Y-103962200D03*
X71043800Y-103962200D03*
X73583800Y-103962200D03*
X76123800Y-103962200D03*
X78663800Y-103962200D03*
X81203800Y-103962200D03*
X83743800Y-103962200D03*
X86283800Y-103962200D03*
X88823800Y-103962200D03*
X91363800Y-103962200D03*
X93903800Y-103962200D03*
X93903800Y-96342200D03*
X91363800Y-96342200D03*
X88823800Y-96342200D03*
X86283800Y-96342200D03*
X83743800Y-96342200D03*
X81203800Y-96342200D03*
X78663800Y-96342200D03*
X76123800Y-96342200D03*
X73583800Y-96342200D03*
X71043800Y-96342200D03*
X68503800Y-96342200D03*
X65963800Y-96342200D03*
X63423800Y-96342200D03*
X60883800Y-96342200D03*
%TD*%
D19*
%TO.C,C1*%
X68580000Y-124460000D03*
D14*
X68580000Y-126460000D03*
%TD*%
D22*
%TO.C,J5*%
X120650000Y-122080000D03*
D23*
X120650000Y-116680000D03*
%TD*%
D14*
%TO.C,C5*%
X86283800Y-123012200D03*
X86283800Y-125512200D03*
%TD*%
D24*
%TO.C,J1*%
X59690000Y-120650000D03*
D25*
X59690000Y-126650000D03*
D26*
X54990000Y-123650000D03*
%TD*%
M02*
