%TF.GenerationSoftware,KiCad,Pcbnew,(6.0.9)*%
%TF.CreationDate,2023-01-16T23:19:06+01:00*%
%TF.ProjectId,FM_radio_atmega_8,464d5f72-6164-4696-9f5f-61746d656761,rev?*%
%TF.SameCoordinates,Original*%
%TF.FileFunction,Legend,Top*%
%TF.FilePolarity,Positive*%
%FSLAX46Y46*%
G04 Gerber Fmt 4.6, Leading zero omitted, Abs format (unit mm)*
G04 Created by KiCad (PCBNEW (6.0.9)) date 2023-01-16 23:19:06*
%MOMM*%
%LPD*%
G01*
G04 APERTURE LIST*
G04 Aperture macros list*
%AMRoundRect*
0 Rectangle with rounded corners*
0 $1 Rounding radius*
0 $2 $3 $4 $5 $6 $7 $8 $9 X,Y pos of 4 corners*
0 Add a 4 corners polygon primitive as box body*
4,1,4,$2,$3,$4,$5,$6,$7,$8,$9,$2,$3,0*
0 Add four circle primitives for the rounded corners*
1,1,$1+$1,$2,$3*
1,1,$1+$1,$4,$5*
1,1,$1+$1,$6,$7*
1,1,$1+$1,$8,$9*
0 Add four rect primitives between the rounded corners*
20,1,$1+$1,$2,$3,$4,$5,0*
20,1,$1+$1,$4,$5,$6,$7,0*
20,1,$1+$1,$6,$7,$8,$9,0*
20,1,$1+$1,$8,$9,$2,$3,0*%
G04 Aperture macros list end*
%ADD10C,0.250000*%
%ADD11C,0.150000*%
%ADD12C,0.120000*%
%ADD13C,1.400000*%
%ADD14O,1.400000X1.400000*%
%ADD15C,1.600000*%
%ADD16R,1.905000X2.000000*%
%ADD17O,1.905000X2.000000*%
%ADD18R,1.700000X1.700000*%
%ADD19O,1.700000X1.700000*%
%ADD20O,3.000000X1.500000*%
%ADD21R,1.600000X1.600000*%
%ADD22C,1.524000*%
%ADD23O,1.600000X1.600000*%
%ADD24RoundRect,0.250000X1.125000X-1.125000X1.125000X1.125000X-1.125000X1.125000X-1.125000X-1.125000X0*%
%ADD25C,2.750000*%
%ADD26R,3.500000X3.500000*%
%ADD27RoundRect,0.750000X1.000000X-0.750000X1.000000X0.750000X-1.000000X0.750000X-1.000000X-0.750000X0*%
%ADD28RoundRect,0.875000X0.875000X-0.875000X0.875000X0.875000X-0.875000X0.875000X-0.875000X-0.875000X0*%
G04 APERTURE END LIST*
D10*
X54135190Y-81021180D02*
X54135190Y-80021180D01*
X54706619Y-81021180D02*
X54278047Y-80449752D01*
X54706619Y-80021180D02*
X54135190Y-80592609D01*
X55135190Y-81021180D02*
X55135190Y-80354514D01*
X55135190Y-80544990D02*
X55182809Y-80449752D01*
X55230428Y-80402133D01*
X55325666Y-80354514D01*
X55420904Y-80354514D01*
X55659000Y-80354514D02*
X56182809Y-80354514D01*
X55659000Y-81021180D01*
X56182809Y-81021180D01*
X56468523Y-80354514D02*
X56706619Y-81021180D01*
X56944714Y-80354514D02*
X56706619Y-81021180D01*
X56611380Y-81259276D01*
X56563761Y-81306895D01*
X56468523Y-81354514D01*
X57278047Y-80973561D02*
X57373285Y-81021180D01*
X57563761Y-81021180D01*
X57659000Y-80973561D01*
X57706619Y-80878323D01*
X57706619Y-80830704D01*
X57659000Y-80735466D01*
X57563761Y-80687847D01*
X57420904Y-80687847D01*
X57325666Y-80640228D01*
X57278047Y-80544990D01*
X57278047Y-80497371D01*
X57325666Y-80402133D01*
X57420904Y-80354514D01*
X57563761Y-80354514D01*
X57659000Y-80402133D01*
X58039952Y-80354514D02*
X58563761Y-80354514D01*
X58039952Y-81021180D01*
X58563761Y-81021180D01*
X58801857Y-80354514D02*
X59182809Y-80354514D01*
X58944714Y-80021180D02*
X58944714Y-80878323D01*
X58992333Y-80973561D01*
X59087571Y-81021180D01*
X59182809Y-81021180D01*
X59659000Y-81021180D02*
X59563761Y-80973561D01*
X59516142Y-80925942D01*
X59468523Y-80830704D01*
X59468523Y-80544990D01*
X59516142Y-80449752D01*
X59563761Y-80402133D01*
X59659000Y-80354514D01*
X59801857Y-80354514D01*
X59897095Y-80402133D01*
X59944714Y-80449752D01*
X59992333Y-80544990D01*
X59992333Y-80830704D01*
X59944714Y-80925942D01*
X59897095Y-80973561D01*
X59801857Y-81021180D01*
X59659000Y-81021180D01*
X60278047Y-80354514D02*
X60659000Y-80354514D01*
X60420904Y-81021180D02*
X60420904Y-80164038D01*
X60468523Y-80068800D01*
X60563761Y-80021180D01*
X60659000Y-80021180D01*
X61706619Y-80973561D02*
X61849476Y-81021180D01*
X62087571Y-81021180D01*
X62182809Y-80973561D01*
X62230428Y-80925942D01*
X62278047Y-80830704D01*
X62278047Y-80735466D01*
X62230428Y-80640228D01*
X62182809Y-80592609D01*
X62087571Y-80544990D01*
X61897095Y-80497371D01*
X61801857Y-80449752D01*
X61754238Y-80402133D01*
X61706619Y-80306895D01*
X61706619Y-80211657D01*
X61754238Y-80116419D01*
X61801857Y-80068800D01*
X61897095Y-80021180D01*
X62135190Y-80021180D01*
X62278047Y-80068800D01*
X62706619Y-81021180D02*
X62706619Y-80354514D01*
X62706619Y-80021180D02*
X62659000Y-80068800D01*
X62706619Y-80116419D01*
X62754238Y-80068800D01*
X62706619Y-80021180D01*
X62706619Y-80116419D01*
X63182809Y-81021180D02*
X63182809Y-80021180D01*
X63278047Y-80640228D02*
X63563761Y-81021180D01*
X63563761Y-80354514D02*
X63182809Y-80735466D01*
X64135190Y-81021180D02*
X64039952Y-80973561D01*
X63992333Y-80925942D01*
X63944714Y-80830704D01*
X63944714Y-80544990D01*
X63992333Y-80449752D01*
X64039952Y-80402133D01*
X64135190Y-80354514D01*
X64278047Y-80354514D01*
X64373285Y-80402133D01*
X64420904Y-80449752D01*
X64468523Y-80544990D01*
X64468523Y-80830704D01*
X64420904Y-80925942D01*
X64373285Y-80973561D01*
X64278047Y-81021180D01*
X64135190Y-81021180D01*
X64897095Y-81021180D02*
X64897095Y-80354514D01*
X64897095Y-80544990D02*
X64944714Y-80449752D01*
X64992333Y-80402133D01*
X65087571Y-80354514D01*
X65182809Y-80354514D01*
X65944714Y-81021180D02*
X65944714Y-80497371D01*
X65897095Y-80402133D01*
X65801857Y-80354514D01*
X65611380Y-80354514D01*
X65516142Y-80402133D01*
X65944714Y-80973561D02*
X65849476Y-81021180D01*
X65611380Y-81021180D01*
X65516142Y-80973561D01*
X65468523Y-80878323D01*
X65468523Y-80783085D01*
X65516142Y-80687847D01*
X65611380Y-80640228D01*
X65849476Y-80640228D01*
X65944714Y-80592609D01*
X67516142Y-80497371D02*
X67182809Y-80497371D01*
X67182809Y-81021180D02*
X67182809Y-80021180D01*
X67659000Y-80021180D01*
X68039952Y-81021180D02*
X68039952Y-80021180D01*
X68373285Y-80735466D01*
X68706619Y-80021180D01*
X68706619Y-81021180D01*
X69944714Y-81021180D02*
X69944714Y-80354514D01*
X69944714Y-80544990D02*
X69992333Y-80449752D01*
X70039952Y-80402133D01*
X70135190Y-80354514D01*
X70230428Y-80354514D01*
X70992333Y-81021180D02*
X70992333Y-80497371D01*
X70944714Y-80402133D01*
X70849476Y-80354514D01*
X70659000Y-80354514D01*
X70563761Y-80402133D01*
X70992333Y-80973561D02*
X70897095Y-81021180D01*
X70659000Y-81021180D01*
X70563761Y-80973561D01*
X70516142Y-80878323D01*
X70516142Y-80783085D01*
X70563761Y-80687847D01*
X70659000Y-80640228D01*
X70897095Y-80640228D01*
X70992333Y-80592609D01*
X71897095Y-81021180D02*
X71897095Y-80021180D01*
X71897095Y-80973561D02*
X71801857Y-81021180D01*
X71611380Y-81021180D01*
X71516142Y-80973561D01*
X71468523Y-80925942D01*
X71420904Y-80830704D01*
X71420904Y-80544990D01*
X71468523Y-80449752D01*
X71516142Y-80402133D01*
X71611380Y-80354514D01*
X71801857Y-80354514D01*
X71897095Y-80402133D01*
X72373285Y-81021180D02*
X72373285Y-80354514D01*
X72373285Y-80021180D02*
X72325666Y-80068800D01*
X72373285Y-80116419D01*
X72420904Y-80068800D01*
X72373285Y-80021180D01*
X72373285Y-80116419D01*
X72992333Y-81021180D02*
X72897095Y-80973561D01*
X72849476Y-80925942D01*
X72801857Y-80830704D01*
X72801857Y-80544990D01*
X72849476Y-80449752D01*
X72897095Y-80402133D01*
X72992333Y-80354514D01*
X73135190Y-80354514D01*
X73230428Y-80402133D01*
X73278047Y-80449752D01*
X73325666Y-80544990D01*
X73325666Y-80830704D01*
X73278047Y-80925942D01*
X73230428Y-80973561D01*
X73135190Y-81021180D01*
X72992333Y-81021180D01*
X74420904Y-80354514D02*
X74659000Y-81021180D01*
X74897095Y-80354514D01*
X75801857Y-81021180D02*
X75230428Y-81021180D01*
X75516142Y-81021180D02*
X75516142Y-80021180D01*
X75420904Y-80164038D01*
X75325666Y-80259276D01*
X75230428Y-80306895D01*
X76230428Y-80925942D02*
X76278047Y-80973561D01*
X76230428Y-81021180D01*
X76182809Y-80973561D01*
X76230428Y-80925942D01*
X76230428Y-81021180D01*
X76897095Y-80021180D02*
X76992333Y-80021180D01*
X77087571Y-80068800D01*
X77135190Y-80116419D01*
X77182809Y-80211657D01*
X77230428Y-80402133D01*
X77230428Y-80640228D01*
X77182809Y-80830704D01*
X77135190Y-80925942D01*
X77087571Y-80973561D01*
X76992333Y-81021180D01*
X76897095Y-81021180D01*
X76801857Y-80973561D01*
X76754238Y-80925942D01*
X76706619Y-80830704D01*
X76659000Y-80640228D01*
X76659000Y-80402133D01*
X76706619Y-80211657D01*
X76754238Y-80116419D01*
X76801857Y-80068800D01*
X76897095Y-80021180D01*
D11*
%TO.C,R5*%
X110482380Y-107816666D02*
X110006190Y-108150000D01*
X110482380Y-108388095D02*
X109482380Y-108388095D01*
X109482380Y-108007142D01*
X109530000Y-107911904D01*
X109577619Y-107864285D01*
X109672857Y-107816666D01*
X109815714Y-107816666D01*
X109910952Y-107864285D01*
X109958571Y-107911904D01*
X110006190Y-108007142D01*
X110006190Y-108388095D01*
X109482380Y-106911904D02*
X109482380Y-107388095D01*
X109958571Y-107435714D01*
X109910952Y-107388095D01*
X109863333Y-107292857D01*
X109863333Y-107054761D01*
X109910952Y-106959523D01*
X109958571Y-106911904D01*
X110053809Y-106864285D01*
X110291904Y-106864285D01*
X110387142Y-106911904D01*
X110434761Y-106959523D01*
X110482380Y-107054761D01*
X110482380Y-107292857D01*
X110434761Y-107388095D01*
X110387142Y-107435714D01*
%TO.C,C3*%
X72223333Y-108307142D02*
X72175714Y-108354761D01*
X72032857Y-108402380D01*
X71937619Y-108402380D01*
X71794761Y-108354761D01*
X71699523Y-108259523D01*
X71651904Y-108164285D01*
X71604285Y-107973809D01*
X71604285Y-107830952D01*
X71651904Y-107640476D01*
X71699523Y-107545238D01*
X71794761Y-107450000D01*
X71937619Y-107402380D01*
X72032857Y-107402380D01*
X72175714Y-107450000D01*
X72223333Y-107497619D01*
X72556666Y-107402380D02*
X73175714Y-107402380D01*
X72842380Y-107783333D01*
X72985238Y-107783333D01*
X73080476Y-107830952D01*
X73128095Y-107878571D01*
X73175714Y-107973809D01*
X73175714Y-108211904D01*
X73128095Y-108307142D01*
X73080476Y-108354761D01*
X72985238Y-108402380D01*
X72699523Y-108402380D01*
X72604285Y-108354761D01*
X72556666Y-108307142D01*
%TO.C,C4*%
X104367142Y-107606666D02*
X104414761Y-107654285D01*
X104462380Y-107797142D01*
X104462380Y-107892380D01*
X104414761Y-108035238D01*
X104319523Y-108130476D01*
X104224285Y-108178095D01*
X104033809Y-108225714D01*
X103890952Y-108225714D01*
X103700476Y-108178095D01*
X103605238Y-108130476D01*
X103510000Y-108035238D01*
X103462380Y-107892380D01*
X103462380Y-107797142D01*
X103510000Y-107654285D01*
X103557619Y-107606666D01*
X103795714Y-106749523D02*
X104462380Y-106749523D01*
X103414761Y-106987619D02*
X104129047Y-107225714D01*
X104129047Y-106606666D01*
%TO.C,U1*%
X65278095Y-117077380D02*
X65278095Y-117886904D01*
X65325714Y-117982142D01*
X65373333Y-118029761D01*
X65468571Y-118077380D01*
X65659047Y-118077380D01*
X65754285Y-118029761D01*
X65801904Y-117982142D01*
X65849523Y-117886904D01*
X65849523Y-117077380D01*
X66849523Y-118077380D02*
X66278095Y-118077380D01*
X66563809Y-118077380D02*
X66563809Y-117077380D01*
X66468571Y-117220238D01*
X66373333Y-117315476D01*
X66278095Y-117363095D01*
%TO.C,R3*%
X55682380Y-106846666D02*
X55206190Y-107180000D01*
X55682380Y-107418095D02*
X54682380Y-107418095D01*
X54682380Y-107037142D01*
X54730000Y-106941904D01*
X54777619Y-106894285D01*
X54872857Y-106846666D01*
X55015714Y-106846666D01*
X55110952Y-106894285D01*
X55158571Y-106941904D01*
X55206190Y-107037142D01*
X55206190Y-107418095D01*
X54682380Y-106513333D02*
X54682380Y-105894285D01*
X55063333Y-106227619D01*
X55063333Y-106084761D01*
X55110952Y-105989523D01*
X55158571Y-105941904D01*
X55253809Y-105894285D01*
X55491904Y-105894285D01*
X55587142Y-105941904D01*
X55634761Y-105989523D01*
X55682380Y-106084761D01*
X55682380Y-106370476D01*
X55634761Y-106465714D01*
X55587142Y-106513333D01*
%TO.C,J4*%
X60622380Y-86693333D02*
X61336666Y-86693333D01*
X61479523Y-86740952D01*
X61574761Y-86836190D01*
X61622380Y-86979047D01*
X61622380Y-87074285D01*
X60955714Y-85788571D02*
X61622380Y-85788571D01*
X60574761Y-86026666D02*
X61289047Y-86264761D01*
X61289047Y-85645714D01*
%TO.C,R2*%
X70953333Y-117912380D02*
X70620000Y-117436190D01*
X70381904Y-117912380D02*
X70381904Y-116912380D01*
X70762857Y-116912380D01*
X70858095Y-116960000D01*
X70905714Y-117007619D01*
X70953333Y-117102857D01*
X70953333Y-117245714D01*
X70905714Y-117340952D01*
X70858095Y-117388571D01*
X70762857Y-117436190D01*
X70381904Y-117436190D01*
X71334285Y-117007619D02*
X71381904Y-116960000D01*
X71477142Y-116912380D01*
X71715238Y-116912380D01*
X71810476Y-116960000D01*
X71858095Y-117007619D01*
X71905714Y-117102857D01*
X71905714Y-117198095D01*
X71858095Y-117340952D01*
X71286666Y-117912380D01*
X71905714Y-117912380D01*
%TO.C,U3*%
X118618095Y-94552380D02*
X118618095Y-95361904D01*
X118665714Y-95457142D01*
X118713333Y-95504761D01*
X118808571Y-95552380D01*
X118999047Y-95552380D01*
X119094285Y-95504761D01*
X119141904Y-95457142D01*
X119189523Y-95361904D01*
X119189523Y-94552380D01*
X119570476Y-94552380D02*
X120189523Y-94552380D01*
X119856190Y-94933333D01*
X119999047Y-94933333D01*
X120094285Y-94980952D01*
X120141904Y-95028571D01*
X120189523Y-95123809D01*
X120189523Y-95361904D01*
X120141904Y-95457142D01*
X120094285Y-95504761D01*
X119999047Y-95552380D01*
X119713333Y-95552380D01*
X119618095Y-95504761D01*
X119570476Y-95457142D01*
X115308571Y-93081780D02*
X115880000Y-93081780D01*
X115594285Y-94081780D02*
X115594285Y-93081780D01*
X116213333Y-93557971D02*
X116546666Y-93557971D01*
X116689523Y-94081780D02*
X116213333Y-94081780D01*
X116213333Y-93081780D01*
X116689523Y-93081780D01*
X117070476Y-93796066D02*
X117546666Y-93796066D01*
X116975238Y-94081780D02*
X117308571Y-93081780D01*
X117641904Y-94081780D01*
X118451428Y-93081780D02*
X117975238Y-93081780D01*
X117927619Y-93557971D01*
X117975238Y-93510352D01*
X118070476Y-93462733D01*
X118308571Y-93462733D01*
X118403809Y-93510352D01*
X118451428Y-93557971D01*
X118499047Y-93653209D01*
X118499047Y-93891304D01*
X118451428Y-93986542D01*
X118403809Y-94034161D01*
X118308571Y-94081780D01*
X118070476Y-94081780D01*
X117975238Y-94034161D01*
X117927619Y-93986542D01*
X118832380Y-93081780D02*
X119499047Y-93081780D01*
X119070476Y-94081780D01*
X120308571Y-93081780D02*
X120118095Y-93081780D01*
X120022857Y-93129400D01*
X119975238Y-93177019D01*
X119880000Y-93319876D01*
X119832380Y-93510352D01*
X119832380Y-93891304D01*
X119880000Y-93986542D01*
X119927619Y-94034161D01*
X120022857Y-94081780D01*
X120213333Y-94081780D01*
X120308571Y-94034161D01*
X120356190Y-93986542D01*
X120403809Y-93891304D01*
X120403809Y-93653209D01*
X120356190Y-93557971D01*
X120308571Y-93510352D01*
X120213333Y-93462733D01*
X120022857Y-93462733D01*
X119927619Y-93510352D01*
X119880000Y-93557971D01*
X119832380Y-93653209D01*
X120737142Y-93081780D02*
X121403809Y-93081780D01*
X120975238Y-94081780D01*
%TO.C,J2*%
X124126666Y-88562380D02*
X124126666Y-89276666D01*
X124079047Y-89419523D01*
X123983809Y-89514761D01*
X123840952Y-89562380D01*
X123745714Y-89562380D01*
X124555238Y-88657619D02*
X124602857Y-88610000D01*
X124698095Y-88562380D01*
X124936190Y-88562380D01*
X125031428Y-88610000D01*
X125079047Y-88657619D01*
X125126666Y-88752857D01*
X125126666Y-88848095D01*
X125079047Y-88990952D01*
X124507619Y-89562380D01*
X125126666Y-89562380D01*
%TO.C,R1*%
X81112380Y-123356666D02*
X80636190Y-123690000D01*
X81112380Y-123928095D02*
X80112380Y-123928095D01*
X80112380Y-123547142D01*
X80160000Y-123451904D01*
X80207619Y-123404285D01*
X80302857Y-123356666D01*
X80445714Y-123356666D01*
X80540952Y-123404285D01*
X80588571Y-123451904D01*
X80636190Y-123547142D01*
X80636190Y-123928095D01*
X81112380Y-122404285D02*
X81112380Y-122975714D01*
X81112380Y-122690000D02*
X80112380Y-122690000D01*
X80255238Y-122785238D01*
X80350476Y-122880476D01*
X80398095Y-122975714D01*
%TO.C,J3*%
X80942380Y-86693333D02*
X81656666Y-86693333D01*
X81799523Y-86740952D01*
X81894761Y-86836190D01*
X81942380Y-86979047D01*
X81942380Y-87074285D01*
X80942380Y-86312380D02*
X80942380Y-85693333D01*
X81323333Y-86026666D01*
X81323333Y-85883809D01*
X81370952Y-85788571D01*
X81418571Y-85740952D01*
X81513809Y-85693333D01*
X81751904Y-85693333D01*
X81847142Y-85740952D01*
X81894761Y-85788571D01*
X81942380Y-85883809D01*
X81942380Y-86169523D01*
X81894761Y-86264761D01*
X81847142Y-86312380D01*
%TO.C,C2*%
X75763333Y-110907142D02*
X75715714Y-110954761D01*
X75572857Y-111002380D01*
X75477619Y-111002380D01*
X75334761Y-110954761D01*
X75239523Y-110859523D01*
X75191904Y-110764285D01*
X75144285Y-110573809D01*
X75144285Y-110430952D01*
X75191904Y-110240476D01*
X75239523Y-110145238D01*
X75334761Y-110050000D01*
X75477619Y-110002380D01*
X75572857Y-110002380D01*
X75715714Y-110050000D01*
X75763333Y-110097619D01*
X76144285Y-110097619D02*
X76191904Y-110050000D01*
X76287142Y-110002380D01*
X76525238Y-110002380D01*
X76620476Y-110050000D01*
X76668095Y-110097619D01*
X76715714Y-110192857D01*
X76715714Y-110288095D01*
X76668095Y-110430952D01*
X76096666Y-111002380D01*
X76715714Y-111002380D01*
%TO.C,R4*%
X103942380Y-101766666D02*
X103466190Y-102100000D01*
X103942380Y-102338095D02*
X102942380Y-102338095D01*
X102942380Y-101957142D01*
X102990000Y-101861904D01*
X103037619Y-101814285D01*
X103132857Y-101766666D01*
X103275714Y-101766666D01*
X103370952Y-101814285D01*
X103418571Y-101861904D01*
X103466190Y-101957142D01*
X103466190Y-102338095D01*
X103275714Y-100909523D02*
X103942380Y-100909523D01*
X102894761Y-101147619D02*
X103609047Y-101385714D01*
X103609047Y-100766666D01*
%TO.C,U4*%
X100838095Y-113252380D02*
X100838095Y-114061904D01*
X100885714Y-114157142D01*
X100933333Y-114204761D01*
X101028571Y-114252380D01*
X101219047Y-114252380D01*
X101314285Y-114204761D01*
X101361904Y-114157142D01*
X101409523Y-114061904D01*
X101409523Y-113252380D01*
X102314285Y-113585714D02*
X102314285Y-114252380D01*
X102076190Y-113204761D02*
X101838095Y-113919047D01*
X102457142Y-113919047D01*
X95338095Y-119832380D02*
X95338095Y-118832380D01*
X95719047Y-118832380D01*
X95814285Y-118880000D01*
X95861904Y-118927619D01*
X95909523Y-119022857D01*
X95909523Y-119165714D01*
X95861904Y-119260952D01*
X95814285Y-119308571D01*
X95719047Y-119356190D01*
X95338095Y-119356190D01*
X96290476Y-119546666D02*
X96766666Y-119546666D01*
X96195238Y-119832380D02*
X96528571Y-118832380D01*
X96861904Y-119832380D01*
X97195238Y-119832380D02*
X97195238Y-118832380D01*
X97528571Y-119546666D01*
X97861904Y-118832380D01*
X97861904Y-119832380D01*
X98480952Y-119260952D02*
X98385714Y-119213333D01*
X98338095Y-119165714D01*
X98290476Y-119070476D01*
X98290476Y-119022857D01*
X98338095Y-118927619D01*
X98385714Y-118880000D01*
X98480952Y-118832380D01*
X98671428Y-118832380D01*
X98766666Y-118880000D01*
X98814285Y-118927619D01*
X98861904Y-119022857D01*
X98861904Y-119070476D01*
X98814285Y-119165714D01*
X98766666Y-119213333D01*
X98671428Y-119260952D01*
X98480952Y-119260952D01*
X98385714Y-119308571D01*
X98338095Y-119356190D01*
X98290476Y-119451428D01*
X98290476Y-119641904D01*
X98338095Y-119737142D01*
X98385714Y-119784761D01*
X98480952Y-119832380D01*
X98671428Y-119832380D01*
X98766666Y-119784761D01*
X98814285Y-119737142D01*
X98861904Y-119641904D01*
X98861904Y-119451428D01*
X98814285Y-119356190D01*
X98766666Y-119308571D01*
X98671428Y-119260952D01*
X99195238Y-118832380D02*
X99814285Y-118832380D01*
X99480952Y-119213333D01*
X99623809Y-119213333D01*
X99719047Y-119260952D01*
X99766666Y-119308571D01*
X99814285Y-119403809D01*
X99814285Y-119641904D01*
X99766666Y-119737142D01*
X99719047Y-119784761D01*
X99623809Y-119832380D01*
X99338095Y-119832380D01*
X99242857Y-119784761D01*
X99195238Y-119737142D01*
X100433333Y-118832380D02*
X100528571Y-118832380D01*
X100623809Y-118880000D01*
X100671428Y-118927619D01*
X100719047Y-119022857D01*
X100766666Y-119213333D01*
X100766666Y-119451428D01*
X100719047Y-119641904D01*
X100671428Y-119737142D01*
X100623809Y-119784761D01*
X100528571Y-119832380D01*
X100433333Y-119832380D01*
X100338095Y-119784761D01*
X100290476Y-119737142D01*
X100242857Y-119641904D01*
X100195238Y-119451428D01*
X100195238Y-119213333D01*
X100242857Y-119022857D01*
X100290476Y-118927619D01*
X100338095Y-118880000D01*
X100433333Y-118832380D01*
X101147619Y-118927619D02*
X101195238Y-118880000D01*
X101290476Y-118832380D01*
X101528571Y-118832380D01*
X101623809Y-118880000D01*
X101671428Y-118927619D01*
X101719047Y-119022857D01*
X101719047Y-119118095D01*
X101671428Y-119260952D01*
X101100000Y-119832380D01*
X101719047Y-119832380D01*
X102909523Y-119832380D02*
X102909523Y-119165714D01*
X102909523Y-119260952D02*
X102957142Y-119213333D01*
X103052380Y-119165714D01*
X103195238Y-119165714D01*
X103290476Y-119213333D01*
X103338095Y-119308571D01*
X103338095Y-119832380D01*
X103338095Y-119308571D02*
X103385714Y-119213333D01*
X103480952Y-119165714D01*
X103623809Y-119165714D01*
X103719047Y-119213333D01*
X103766666Y-119308571D01*
X103766666Y-119832380D01*
X104385714Y-119832380D02*
X104290476Y-119784761D01*
X104242857Y-119737142D01*
X104195238Y-119641904D01*
X104195238Y-119356190D01*
X104242857Y-119260952D01*
X104290476Y-119213333D01*
X104385714Y-119165714D01*
X104528571Y-119165714D01*
X104623809Y-119213333D01*
X104671428Y-119260952D01*
X104719047Y-119356190D01*
X104719047Y-119641904D01*
X104671428Y-119737142D01*
X104623809Y-119784761D01*
X104528571Y-119832380D01*
X104385714Y-119832380D01*
X105576190Y-119832380D02*
X105576190Y-118832380D01*
X105576190Y-119784761D02*
X105480952Y-119832380D01*
X105290476Y-119832380D01*
X105195238Y-119784761D01*
X105147619Y-119737142D01*
X105100000Y-119641904D01*
X105100000Y-119356190D01*
X105147619Y-119260952D01*
X105195238Y-119213333D01*
X105290476Y-119165714D01*
X105480952Y-119165714D01*
X105576190Y-119213333D01*
X106480952Y-119165714D02*
X106480952Y-119832380D01*
X106052380Y-119165714D02*
X106052380Y-119689523D01*
X106100000Y-119784761D01*
X106195238Y-119832380D01*
X106338095Y-119832380D01*
X106433333Y-119784761D01*
X106480952Y-119737142D01*
X107100000Y-119832380D02*
X107004761Y-119784761D01*
X106957142Y-119689523D01*
X106957142Y-118832380D01*
X107861904Y-119784761D02*
X107766666Y-119832380D01*
X107576190Y-119832380D01*
X107480952Y-119784761D01*
X107433333Y-119689523D01*
X107433333Y-119308571D01*
X107480952Y-119213333D01*
X107576190Y-119165714D01*
X107766666Y-119165714D01*
X107861904Y-119213333D01*
X107909523Y-119308571D01*
X107909523Y-119403809D01*
X107433333Y-119499047D01*
X93218095Y-123960000D02*
X93122857Y-123912380D01*
X92980000Y-123912380D01*
X92837142Y-123960000D01*
X92741904Y-124055238D01*
X92694285Y-124150476D01*
X92646666Y-124340952D01*
X92646666Y-124483809D01*
X92694285Y-124674285D01*
X92741904Y-124769523D01*
X92837142Y-124864761D01*
X92980000Y-124912380D01*
X93075238Y-124912380D01*
X93218095Y-124864761D01*
X93265714Y-124817142D01*
X93265714Y-124483809D01*
X93075238Y-124483809D01*
X93694285Y-124912380D02*
X93694285Y-123912380D01*
X94265714Y-124912380D01*
X94265714Y-123912380D01*
X94741904Y-124912380D02*
X94741904Y-123912380D01*
X94980000Y-123912380D01*
X95122857Y-123960000D01*
X95218095Y-124055238D01*
X95265714Y-124150476D01*
X95313333Y-124340952D01*
X95313333Y-124483809D01*
X95265714Y-124674285D01*
X95218095Y-124769523D01*
X95122857Y-124864761D01*
X94980000Y-124912380D01*
X94741904Y-124912380D01*
%TO.C,U2*%
X58006180Y-100914104D02*
X58815704Y-100914104D01*
X58910942Y-100866485D01*
X58958561Y-100818866D01*
X59006180Y-100723628D01*
X59006180Y-100533152D01*
X58958561Y-100437914D01*
X58910942Y-100390295D01*
X58815704Y-100342676D01*
X58006180Y-100342676D01*
X58101419Y-99914104D02*
X58053800Y-99866485D01*
X58006180Y-99771247D01*
X58006180Y-99533152D01*
X58053800Y-99437914D01*
X58101419Y-99390295D01*
X58196657Y-99342676D01*
X58291895Y-99342676D01*
X58434752Y-99390295D01*
X59006180Y-99961723D01*
X59006180Y-99342676D01*
%TO.C,C1*%
X72687142Y-125626666D02*
X72734761Y-125674285D01*
X72782380Y-125817142D01*
X72782380Y-125912380D01*
X72734761Y-126055238D01*
X72639523Y-126150476D01*
X72544285Y-126198095D01*
X72353809Y-126245714D01*
X72210952Y-126245714D01*
X72020476Y-126198095D01*
X71925238Y-126150476D01*
X71830000Y-126055238D01*
X71782380Y-125912380D01*
X71782380Y-125817142D01*
X71830000Y-125674285D01*
X71877619Y-125626666D01*
X72782380Y-124674285D02*
X72782380Y-125245714D01*
X72782380Y-124960000D02*
X71782380Y-124960000D01*
X71925238Y-125055238D01*
X72020476Y-125150476D01*
X72068095Y-125245714D01*
%TO.C,J5*%
X117522380Y-119713333D02*
X118236666Y-119713333D01*
X118379523Y-119760952D01*
X118474761Y-119856190D01*
X118522380Y-119999047D01*
X118522380Y-120094285D01*
X117522380Y-118760952D02*
X117522380Y-119237142D01*
X117998571Y-119284761D01*
X117950952Y-119237142D01*
X117903333Y-119141904D01*
X117903333Y-118903809D01*
X117950952Y-118808571D01*
X117998571Y-118760952D01*
X118093809Y-118713333D01*
X118331904Y-118713333D01*
X118427142Y-118760952D01*
X118474761Y-118808571D01*
X118522380Y-118903809D01*
X118522380Y-119141904D01*
X118474761Y-119237142D01*
X118427142Y-119284761D01*
%TO.C,C5*%
X84227142Y-124916666D02*
X84274761Y-124964285D01*
X84322380Y-125107142D01*
X84322380Y-125202380D01*
X84274761Y-125345238D01*
X84179523Y-125440476D01*
X84084285Y-125488095D01*
X83893809Y-125535714D01*
X83750952Y-125535714D01*
X83560476Y-125488095D01*
X83465238Y-125440476D01*
X83370000Y-125345238D01*
X83322380Y-125202380D01*
X83322380Y-125107142D01*
X83370000Y-124964285D01*
X83417619Y-124916666D01*
X83322380Y-124011904D02*
X83322380Y-124488095D01*
X83798571Y-124535714D01*
X83750952Y-124488095D01*
X83703333Y-124392857D01*
X83703333Y-124154761D01*
X83750952Y-124059523D01*
X83798571Y-124011904D01*
X83893809Y-123964285D01*
X84131904Y-123964285D01*
X84227142Y-124011904D01*
X84274761Y-124059523D01*
X84322380Y-124154761D01*
X84322380Y-124392857D01*
X84274761Y-124488095D01*
X84227142Y-124535714D01*
D12*
%TO.C,R5*%
X107030000Y-106060000D02*
X108870000Y-106060000D01*
X107030000Y-102220000D02*
X107030000Y-106060000D01*
X107950000Y-101270000D02*
X107950000Y-102220000D01*
X107950000Y-107010000D02*
X107950000Y-106060000D01*
X108870000Y-102220000D02*
X107030000Y-102220000D01*
X108870000Y-106060000D02*
X108870000Y-102220000D01*
%TO.C,C3*%
X74820000Y-105320000D02*
X80060000Y-105320000D01*
X74820000Y-108060000D02*
X80060000Y-108060000D01*
X80060000Y-105320000D02*
X80060000Y-108060000D01*
X74820000Y-105320000D02*
X74820000Y-108060000D01*
%TO.C,C4*%
X102970000Y-104040000D02*
X102970000Y-109280000D01*
X102970000Y-109280000D02*
X100230000Y-109280000D01*
X102970000Y-104040000D02*
X100230000Y-104040000D01*
X100230000Y-104040000D02*
X100230000Y-109280000D01*
%TO.C,U1*%
X60920000Y-116625000D02*
X60920000Y-111984000D01*
X71160000Y-116625000D02*
X71160000Y-111984000D01*
X71160000Y-116625000D02*
X60920000Y-116625000D01*
X71160000Y-111984000D02*
X60920000Y-111984000D01*
X64189000Y-116625000D02*
X64189000Y-115115000D01*
X71160000Y-115115000D02*
X60920000Y-115115000D01*
X67890000Y-116625000D02*
X67890000Y-115115000D01*
%TO.C,R3*%
X56230000Y-108600000D02*
X58070000Y-108600000D01*
X57150000Y-103810000D02*
X57150000Y-104760000D01*
X56230000Y-104760000D02*
X56230000Y-108600000D01*
X57150000Y-109550000D02*
X57150000Y-108600000D01*
X58070000Y-108600000D02*
X58070000Y-104760000D01*
X58070000Y-104760000D02*
X56230000Y-104760000D01*
%TO.C,J4*%
X64770000Y-88960000D02*
X74990000Y-88960000D01*
X62170000Y-83760000D02*
X74990000Y-83760000D01*
X62170000Y-86360000D02*
X62170000Y-83760000D01*
X63500000Y-88960000D02*
X62170000Y-88960000D01*
X64770000Y-88960000D02*
X64770000Y-86360000D01*
X62170000Y-88960000D02*
X62170000Y-87630000D01*
X74990000Y-88960000D02*
X74990000Y-83760000D01*
X64770000Y-86360000D02*
X62170000Y-86360000D01*
%TO.C,R2*%
X69200000Y-120300000D02*
X73040000Y-120300000D01*
X73040000Y-118460000D02*
X69200000Y-118460000D01*
X73990000Y-119380000D02*
X73040000Y-119380000D01*
X73040000Y-120300000D02*
X73040000Y-118460000D01*
X68250000Y-119380000D02*
X69200000Y-119380000D01*
X69200000Y-118460000D02*
X69200000Y-120300000D01*
D11*
%TO.C,U3*%
X124880000Y-107100000D02*
X124880000Y-96100000D01*
X113880000Y-107100000D02*
X124880000Y-107100000D01*
X124880000Y-96100000D02*
X113880000Y-96100000D01*
X113880000Y-96100000D02*
X113880000Y-107100000D01*
D12*
%TO.C,J2*%
X123130000Y-90110000D02*
X124460000Y-90110000D01*
X125790000Y-92710000D02*
X125790000Y-92770000D01*
X123130000Y-92770000D02*
X125790000Y-92770000D01*
X123130000Y-91440000D02*
X123130000Y-90110000D01*
X123130000Y-92710000D02*
X125790000Y-92710000D01*
X123130000Y-92710000D02*
X123130000Y-92770000D01*
%TO.C,R1*%
X78740000Y-126060000D02*
X78740000Y-125110000D01*
X79660000Y-121270000D02*
X77820000Y-121270000D01*
X79660000Y-125110000D02*
X79660000Y-121270000D01*
X78740000Y-120320000D02*
X78740000Y-121270000D01*
X77820000Y-125110000D02*
X79660000Y-125110000D01*
X77820000Y-121270000D02*
X77820000Y-125110000D01*
%TO.C,J3*%
X85090000Y-88960000D02*
X95310000Y-88960000D01*
X82490000Y-83760000D02*
X95310000Y-83760000D01*
X85090000Y-88960000D02*
X85090000Y-86360000D01*
X85090000Y-86360000D02*
X82490000Y-86360000D01*
X83820000Y-88960000D02*
X82490000Y-88960000D01*
X82490000Y-86360000D02*
X82490000Y-83760000D01*
X82490000Y-88960000D02*
X82490000Y-87630000D01*
X95310000Y-88960000D02*
X95310000Y-83760000D01*
%TO.C,C2*%
X76090000Y-115340000D02*
X76090000Y-116876000D01*
X76811000Y-115340000D02*
X76811000Y-116728000D01*
X76731000Y-111845000D02*
X76731000Y-113260000D01*
X77131000Y-115340000D02*
X77131000Y-116590000D01*
X77891000Y-115340000D02*
X77891000Y-115999000D01*
X77251000Y-112076000D02*
X77251000Y-113260000D01*
X78251000Y-113122000D02*
X78251000Y-115478000D01*
X76811000Y-111872000D02*
X76811000Y-113260000D01*
X77611000Y-112329000D02*
X77611000Y-113260000D01*
X77291000Y-115340000D02*
X77291000Y-116500000D01*
X77011000Y-111952000D02*
X77011000Y-113260000D01*
X76851000Y-115340000D02*
X76851000Y-116714000D01*
X78371000Y-113385000D02*
X78371000Y-115215000D01*
X77691000Y-112399000D02*
X77691000Y-113260000D01*
X78491000Y-113782000D02*
X78491000Y-114818000D01*
X78131000Y-112917000D02*
X78131000Y-115683000D01*
X77211000Y-112053000D02*
X77211000Y-113260000D01*
X77091000Y-115340000D02*
X77091000Y-116610000D01*
X76450000Y-115340000D02*
X76450000Y-116828000D01*
X76651000Y-111820000D02*
X76651000Y-113260000D01*
X76010000Y-115340000D02*
X76010000Y-116879000D01*
X78011000Y-112746000D02*
X78011000Y-115854000D01*
X76250000Y-111739000D02*
X76250000Y-113260000D01*
X77651000Y-115340000D02*
X77651000Y-116237000D01*
X76931000Y-115340000D02*
X76931000Y-116682000D01*
X77091000Y-111990000D02*
X77091000Y-113260000D01*
X76290000Y-115340000D02*
X76290000Y-116856000D01*
X77251000Y-115340000D02*
X77251000Y-116524000D01*
X76490000Y-111780000D02*
X76490000Y-113260000D01*
X77931000Y-115340000D02*
X77931000Y-115953000D01*
X76410000Y-115340000D02*
X76410000Y-116836000D01*
X76450000Y-111772000D02*
X76450000Y-113260000D01*
X78291000Y-113202000D02*
X78291000Y-115398000D01*
X75970000Y-111720000D02*
X75970000Y-113260000D01*
X76170000Y-115340000D02*
X76170000Y-116869000D01*
X76530000Y-111789000D02*
X76530000Y-113260000D01*
X77731000Y-112436000D02*
X77731000Y-113260000D01*
X77651000Y-112363000D02*
X77651000Y-113260000D01*
X77491000Y-112235000D02*
X77491000Y-113260000D01*
X77771000Y-112474000D02*
X77771000Y-113260000D01*
X76691000Y-111832000D02*
X76691000Y-113260000D01*
X77811000Y-112515000D02*
X77811000Y-113260000D01*
X77851000Y-112557000D02*
X77851000Y-113260000D01*
X73375225Y-112575000D02*
X73375225Y-113075000D01*
X77171000Y-112032000D02*
X77171000Y-113260000D01*
X76330000Y-115340000D02*
X76330000Y-116850000D01*
X77531000Y-115340000D02*
X77531000Y-116335000D01*
X77371000Y-112151000D02*
X77371000Y-113260000D01*
X78531000Y-114016000D02*
X78531000Y-114584000D01*
X77931000Y-112647000D02*
X77931000Y-113260000D01*
X76370000Y-111757000D02*
X76370000Y-113260000D01*
X76250000Y-115340000D02*
X76250000Y-116861000D01*
X76530000Y-115340000D02*
X76530000Y-116811000D01*
X78411000Y-113495000D02*
X78411000Y-115105000D01*
X78331000Y-113289000D02*
X78331000Y-115311000D01*
X77371000Y-115340000D02*
X77371000Y-116449000D01*
X77851000Y-115340000D02*
X77851000Y-116043000D01*
X77051000Y-115340000D02*
X77051000Y-116629000D01*
X76931000Y-111918000D02*
X76931000Y-113260000D01*
X73125225Y-112825000D02*
X73625225Y-112825000D01*
X76971000Y-111935000D02*
X76971000Y-113260000D01*
X76490000Y-115340000D02*
X76490000Y-116820000D01*
X78211000Y-113049000D02*
X78211000Y-115551000D01*
X75930000Y-111720000D02*
X75930000Y-113260000D01*
X76370000Y-115340000D02*
X76370000Y-116843000D01*
X77411000Y-112178000D02*
X77411000Y-113260000D01*
X76210000Y-111735000D02*
X76210000Y-113260000D01*
X77731000Y-115340000D02*
X77731000Y-116164000D01*
X76691000Y-115340000D02*
X76691000Y-116768000D01*
X76090000Y-111724000D02*
X76090000Y-113260000D01*
X76731000Y-115340000D02*
X76731000Y-116755000D01*
X76891000Y-115340000D02*
X76891000Y-116698000D01*
X76410000Y-111764000D02*
X76410000Y-113260000D01*
X76851000Y-111886000D02*
X76851000Y-113260000D01*
X77811000Y-115340000D02*
X77811000Y-116085000D01*
X76891000Y-111902000D02*
X76891000Y-113260000D01*
X77411000Y-115340000D02*
X77411000Y-116422000D01*
X77891000Y-112601000D02*
X77891000Y-113260000D01*
X77491000Y-115340000D02*
X77491000Y-116365000D01*
X78091000Y-112857000D02*
X78091000Y-115743000D01*
X76610000Y-111809000D02*
X76610000Y-113260000D01*
X77691000Y-115340000D02*
X77691000Y-116201000D01*
X76771000Y-115340000D02*
X76771000Y-116742000D01*
X76610000Y-115340000D02*
X76610000Y-116791000D01*
X77331000Y-115340000D02*
X77331000Y-116475000D01*
X77131000Y-112010000D02*
X77131000Y-113260000D01*
X77331000Y-112125000D02*
X77331000Y-113260000D01*
X76651000Y-115340000D02*
X76651000Y-116780000D01*
X75930000Y-115340000D02*
X75930000Y-116880000D01*
X77611000Y-115340000D02*
X77611000Y-116271000D01*
X77571000Y-115340000D02*
X77571000Y-116304000D01*
X76050000Y-111722000D02*
X76050000Y-113260000D01*
X77051000Y-111971000D02*
X77051000Y-113260000D01*
X76971000Y-115340000D02*
X76971000Y-116665000D01*
X76771000Y-111858000D02*
X76771000Y-113260000D01*
X77451000Y-115340000D02*
X77451000Y-116395000D01*
X76130000Y-115340000D02*
X76130000Y-116873000D01*
X76570000Y-111799000D02*
X76570000Y-113260000D01*
X77291000Y-112100000D02*
X77291000Y-113260000D01*
X78051000Y-112800000D02*
X78051000Y-115800000D01*
X76170000Y-111731000D02*
X76170000Y-113260000D01*
X76130000Y-111727000D02*
X76130000Y-113260000D01*
X77451000Y-112205000D02*
X77451000Y-113260000D01*
X76570000Y-115340000D02*
X76570000Y-116801000D01*
X77011000Y-115340000D02*
X77011000Y-116648000D01*
X76330000Y-111750000D02*
X76330000Y-113260000D01*
X77771000Y-115340000D02*
X77771000Y-116126000D01*
X77571000Y-112296000D02*
X77571000Y-113260000D01*
X77211000Y-115340000D02*
X77211000Y-116547000D01*
X76010000Y-111721000D02*
X76010000Y-113260000D01*
X78451000Y-113623000D02*
X78451000Y-114977000D01*
X78171000Y-112981000D02*
X78171000Y-115619000D01*
X77531000Y-112265000D02*
X77531000Y-113260000D01*
X75970000Y-115340000D02*
X75970000Y-116880000D01*
X77971000Y-112695000D02*
X77971000Y-115905000D01*
X77171000Y-115340000D02*
X77171000Y-116568000D01*
X76290000Y-111744000D02*
X76290000Y-113260000D01*
X76210000Y-115340000D02*
X76210000Y-116865000D01*
X76050000Y-115340000D02*
X76050000Y-116878000D01*
X78550000Y-114300000D02*
G75*
G03*
X78550000Y-114300000I-2620000J0D01*
G01*
%TO.C,R4*%
X104490000Y-99680000D02*
X104490000Y-103520000D01*
X106330000Y-99680000D02*
X104490000Y-99680000D01*
X105410000Y-104470000D02*
X105410000Y-103520000D01*
X104490000Y-103520000D02*
X106330000Y-103520000D01*
X106330000Y-103520000D02*
X106330000Y-99680000D01*
X105410000Y-98730000D02*
X105410000Y-99680000D01*
%TO.C,U4*%
X116840000Y-111760000D02*
X88900000Y-111760000D01*
X88900000Y-111760000D02*
X88900000Y-127000000D01*
X88900000Y-127000000D02*
X116840000Y-127000000D01*
X116840000Y-127000000D02*
X116840000Y-111760000D01*
%TO.C,U2*%
X95233800Y-97502200D02*
X59553800Y-97502200D01*
X95233800Y-102802200D02*
X95233800Y-97502200D01*
X59553800Y-101152200D02*
X59553800Y-102802200D01*
X59553800Y-102802200D02*
X95233800Y-102802200D01*
X59553800Y-97502200D02*
X59553800Y-99152200D01*
X59553800Y-101152200D02*
G75*
G03*
X59553800Y-99152200I0J1000000D01*
G01*
%TO.C,C1*%
X70870000Y-126661000D02*
X69620000Y-126661000D01*
X71153000Y-125660000D02*
X69620000Y-125660000D01*
X67540000Y-125580000D02*
X66002000Y-125580000D01*
X71022000Y-126301000D02*
X69620000Y-126301000D01*
X71081000Y-126100000D02*
X69620000Y-126100000D01*
X67540000Y-127261000D02*
X66716000Y-127261000D01*
X69899000Y-127701000D02*
X67261000Y-127701000D01*
X71108000Y-125980000D02*
X69620000Y-125980000D01*
X67540000Y-125980000D02*
X66052000Y-125980000D01*
X70233000Y-127461000D02*
X69620000Y-127461000D01*
X71100000Y-126020000D02*
X69620000Y-126020000D01*
X67540000Y-126661000D02*
X66290000Y-126661000D01*
X67540000Y-127341000D02*
X66795000Y-127341000D01*
X71008000Y-126341000D02*
X69620000Y-126341000D01*
X67540000Y-125940000D02*
X66044000Y-125940000D01*
X71116000Y-125940000D02*
X69620000Y-125940000D01*
X67540000Y-127381000D02*
X66837000Y-127381000D01*
X67540000Y-127021000D02*
X66515000Y-127021000D01*
X67540000Y-126301000D02*
X66138000Y-126301000D01*
X71156000Y-125620000D02*
X69620000Y-125620000D01*
X70890000Y-126621000D02*
X69620000Y-126621000D01*
X70584000Y-127101000D02*
X69620000Y-127101000D01*
X67540000Y-127461000D02*
X66927000Y-127461000D01*
X70185000Y-127501000D02*
X66975000Y-127501000D01*
X67540000Y-125660000D02*
X66007000Y-125660000D01*
X67540000Y-125820000D02*
X66024000Y-125820000D01*
X70909000Y-126581000D02*
X69620000Y-126581000D01*
X70848000Y-126701000D02*
X69620000Y-126701000D01*
X70080000Y-127581000D02*
X67080000Y-127581000D01*
X70551000Y-127141000D02*
X69620000Y-127141000D01*
X67540000Y-126781000D02*
X66356000Y-126781000D01*
X67540000Y-125500000D02*
X66000000Y-125500000D01*
X67540000Y-125780000D02*
X66019000Y-125780000D01*
X69678000Y-127821000D02*
X67482000Y-127821000D01*
X67540000Y-126741000D02*
X66333000Y-126741000D01*
X70279000Y-127421000D02*
X69620000Y-127421000D01*
X69385000Y-127941000D02*
X67775000Y-127941000D01*
X71091000Y-126060000D02*
X69620000Y-126060000D01*
X70962000Y-126461000D02*
X69620000Y-126461000D01*
X67540000Y-127421000D02*
X66881000Y-127421000D01*
X67540000Y-127301000D02*
X66754000Y-127301000D01*
X67540000Y-126140000D02*
X66089000Y-126140000D01*
X70365000Y-127341000D02*
X69620000Y-127341000D01*
X70945000Y-126501000D02*
X69620000Y-126501000D01*
X71060000Y-126181000D02*
X69620000Y-126181000D01*
X70615000Y-127061000D02*
X69620000Y-127061000D01*
X71160000Y-125500000D02*
X69620000Y-125500000D01*
X69831000Y-127741000D02*
X67329000Y-127741000D01*
X67540000Y-125900000D02*
X66037000Y-125900000D01*
X70978000Y-126421000D02*
X69620000Y-126421000D01*
X67540000Y-126461000D02*
X66198000Y-126461000D01*
X70134000Y-127541000D02*
X67026000Y-127541000D01*
X71035000Y-126261000D02*
X69620000Y-126261000D01*
X70406000Y-127301000D02*
X69620000Y-127301000D01*
X69495000Y-127901000D02*
X67665000Y-127901000D01*
X67540000Y-126100000D02*
X66079000Y-126100000D01*
X67540000Y-127141000D02*
X66609000Y-127141000D01*
X67540000Y-126941000D02*
X66458000Y-126941000D01*
X71158000Y-125580000D02*
X69620000Y-125580000D01*
X69591000Y-127861000D02*
X67569000Y-127861000D01*
X67540000Y-127221000D02*
X66679000Y-127221000D01*
X70928000Y-126541000D02*
X69620000Y-126541000D01*
X71130000Y-125860000D02*
X69620000Y-125860000D01*
X71160000Y-125460000D02*
X69620000Y-125460000D01*
X71136000Y-125820000D02*
X69620000Y-125820000D01*
X70755000Y-126861000D02*
X69620000Y-126861000D01*
X71071000Y-126140000D02*
X69620000Y-126140000D01*
X67540000Y-127101000D02*
X66576000Y-127101000D01*
X71149000Y-125700000D02*
X69620000Y-125700000D01*
X70994000Y-126381000D02*
X69620000Y-126381000D01*
X67540000Y-126901000D02*
X66431000Y-126901000D01*
X67540000Y-126581000D02*
X66251000Y-126581000D01*
X67540000Y-126981000D02*
X66485000Y-126981000D01*
X67540000Y-126341000D02*
X66152000Y-126341000D01*
X67540000Y-126421000D02*
X66182000Y-126421000D01*
X67540000Y-126861000D02*
X66405000Y-126861000D01*
X71159000Y-125540000D02*
X69620000Y-125540000D01*
X68864000Y-128061000D02*
X68296000Y-128061000D01*
X67540000Y-126020000D02*
X66060000Y-126020000D01*
X70729000Y-126901000D02*
X69620000Y-126901000D01*
X67540000Y-126181000D02*
X66100000Y-126181000D01*
X69257000Y-127981000D02*
X67903000Y-127981000D01*
X70827000Y-126741000D02*
X69620000Y-126741000D01*
X71141000Y-125780000D02*
X69620000Y-125780000D01*
X70780000Y-126821000D02*
X69620000Y-126821000D01*
X70702000Y-126941000D02*
X69620000Y-126941000D01*
X69758000Y-127781000D02*
X67402000Y-127781000D01*
X70055000Y-122655225D02*
X70055000Y-123155225D01*
X70517000Y-127181000D02*
X69620000Y-127181000D01*
X67540000Y-127061000D02*
X66545000Y-127061000D01*
X69098000Y-128021000D02*
X68062000Y-128021000D01*
X67540000Y-126541000D02*
X66232000Y-126541000D01*
X67540000Y-126381000D02*
X66166000Y-126381000D01*
X67540000Y-126501000D02*
X66215000Y-126501000D01*
X71145000Y-125740000D02*
X69620000Y-125740000D01*
X67540000Y-126621000D02*
X66270000Y-126621000D01*
X69963000Y-127661000D02*
X67197000Y-127661000D01*
X70481000Y-127221000D02*
X69620000Y-127221000D01*
X70023000Y-127621000D02*
X67137000Y-127621000D01*
X67540000Y-125620000D02*
X66004000Y-125620000D01*
X70305000Y-122905225D02*
X69805000Y-122905225D01*
X70804000Y-126781000D02*
X69620000Y-126781000D01*
X67540000Y-126060000D02*
X66069000Y-126060000D01*
X67540000Y-126821000D02*
X66380000Y-126821000D01*
X67540000Y-125700000D02*
X66011000Y-125700000D01*
X67540000Y-126221000D02*
X66112000Y-126221000D01*
X67540000Y-127181000D02*
X66643000Y-127181000D01*
X67540000Y-125860000D02*
X66030000Y-125860000D01*
X67540000Y-126701000D02*
X66312000Y-126701000D01*
X70323000Y-127381000D02*
X69620000Y-127381000D01*
X67540000Y-125460000D02*
X66000000Y-125460000D01*
X71048000Y-126221000D02*
X69620000Y-126221000D01*
X70645000Y-127021000D02*
X69620000Y-127021000D01*
X70675000Y-126981000D02*
X69620000Y-126981000D01*
X67540000Y-125540000D02*
X66001000Y-125540000D01*
X71123000Y-125900000D02*
X69620000Y-125900000D01*
X70444000Y-127261000D02*
X69620000Y-127261000D01*
X67540000Y-125740000D02*
X66015000Y-125740000D01*
X67540000Y-126261000D02*
X66125000Y-126261000D01*
X71200000Y-125460000D02*
G75*
G03*
X71200000Y-125460000I-2620000J0D01*
G01*
%TO.C,C5*%
X87653800Y-126882200D02*
X84913800Y-126882200D01*
X84913800Y-121642200D02*
X84913800Y-126882200D01*
X87653800Y-121642200D02*
X87653800Y-126882200D01*
X87653800Y-121642200D02*
X84913800Y-121642200D01*
%TD*%
%LPC*%
D13*
%TO.C,R5*%
X107950000Y-107950000D03*
D14*
X107950000Y-100330000D03*
%TD*%
D15*
%TO.C,C3*%
X76190000Y-106690000D03*
X78690000Y-106690000D03*
%TD*%
%TO.C,C4*%
X101600000Y-105410000D03*
X101600000Y-107910000D03*
%TD*%
D16*
%TO.C,U1*%
X68580000Y-113355000D03*
D17*
X66040000Y-113355000D03*
X63500000Y-113355000D03*
%TD*%
D13*
%TO.C,R3*%
X57150000Y-110490000D03*
D14*
X57150000Y-102870000D03*
%TD*%
D18*
%TO.C,J4*%
X63500000Y-87630000D03*
D19*
X63500000Y-85090000D03*
X66040000Y-87630000D03*
X66040000Y-85090000D03*
X68580000Y-87630000D03*
X68580000Y-85090000D03*
X71120000Y-87630000D03*
X71120000Y-85090000D03*
X73660000Y-87630000D03*
X73660000Y-85090000D03*
%TD*%
D13*
%TO.C,R2*%
X67310000Y-119380000D03*
D14*
X74930000Y-119380000D03*
%TD*%
D20*
%TO.C,U3*%
X113880000Y-97600000D03*
X113880000Y-99600000D03*
X113880000Y-101600000D03*
X113880000Y-103600000D03*
X113880000Y-105600000D03*
X124880000Y-105600000D03*
X124880000Y-103600000D03*
X124880000Y-101600000D03*
X124880000Y-99600000D03*
X124880000Y-97600000D03*
%TD*%
D18*
%TO.C,J2*%
X124460000Y-91440000D03*
%TD*%
D13*
%TO.C,R1*%
X78740000Y-119380000D03*
D14*
X78740000Y-127000000D03*
%TD*%
D18*
%TO.C,J3*%
X83820000Y-87630000D03*
D19*
X83820000Y-85090000D03*
X86360000Y-87630000D03*
X86360000Y-85090000D03*
X88900000Y-87630000D03*
X88900000Y-85090000D03*
X91440000Y-87630000D03*
X91440000Y-85090000D03*
X93980000Y-87630000D03*
X93980000Y-85090000D03*
%TD*%
D21*
%TO.C,C2*%
X74930000Y-114300000D03*
D15*
X76930000Y-114300000D03*
%TD*%
D13*
%TO.C,R4*%
X105410000Y-105410000D03*
D14*
X105410000Y-97790000D03*
%TD*%
D22*
%TO.C,U4*%
X91440000Y-114300000D03*
X91440000Y-116840000D03*
X91440000Y-119380000D03*
X91440000Y-121920000D03*
X91440000Y-124460000D03*
X113538000Y-118110000D03*
X113538000Y-120650000D03*
%TD*%
D21*
%TO.C,U2*%
X60883800Y-103962200D03*
D23*
X63423800Y-103962200D03*
X65963800Y-103962200D03*
X68503800Y-103962200D03*
X71043800Y-103962200D03*
X73583800Y-103962200D03*
X76123800Y-103962200D03*
X78663800Y-103962200D03*
X81203800Y-103962200D03*
X83743800Y-103962200D03*
X86283800Y-103962200D03*
X88823800Y-103962200D03*
X91363800Y-103962200D03*
X93903800Y-103962200D03*
X93903800Y-96342200D03*
X91363800Y-96342200D03*
X88823800Y-96342200D03*
X86283800Y-96342200D03*
X83743800Y-96342200D03*
X81203800Y-96342200D03*
X78663800Y-96342200D03*
X76123800Y-96342200D03*
X73583800Y-96342200D03*
X71043800Y-96342200D03*
X68503800Y-96342200D03*
X65963800Y-96342200D03*
X63423800Y-96342200D03*
X60883800Y-96342200D03*
%TD*%
D21*
%TO.C,C1*%
X68580000Y-124460000D03*
D15*
X68580000Y-126460000D03*
%TD*%
D24*
%TO.C,J5*%
X120650000Y-122080000D03*
D25*
X120650000Y-116680000D03*
%TD*%
D15*
%TO.C,C5*%
X86283800Y-123012200D03*
X86283800Y-125512200D03*
%TD*%
D26*
%TO.C,J1*%
X59690000Y-120650000D03*
D27*
X59690000Y-126650000D03*
D28*
X54990000Y-123650000D03*
%TD*%
M02*
