M48
; DRILL file {KiCad (6.0.9)} date Mon 16 Jan 2023 11:19:37 PM CET
; FORMAT={-:-/ absolute / metric / decimal}
; #@! TF.CreationDate,2023-01-16T23:19:37+01:00
; #@! TF.GenerationSoftware,Kicad,Pcbnew,(6.0.9)
; #@! TF.FileFunction,Plated,1,2,PTH
FMAT,2
METRIC
; #@! TA.AperFunction,Plated,PTH,ViaDrill
T1C0.400
; #@! TA.AperFunction,Plated,PTH,ViaDrill
T2C0.600
; #@! TA.AperFunction,Plated,PTH,ComponentDrill
T3C0.700
; #@! TA.AperFunction,Plated,PTH,ComponentDrill
T4C0.762
; #@! TA.AperFunction,Plated,PTH,ComponentDrill
T5C0.800
; #@! TA.AperFunction,Plated,PTH,ComponentDrill
T6C1.000
; #@! TA.AperFunction,Plated,PTH,ComponentDrill
T7C1.100
; #@! TA.AperFunction,Plated,PTH,ComponentDrill
T8C1.750
%
G90
G05
T1
X64.084Y-81.915
X82.499Y-99.06
X97.536Y-94.031
X97.536Y-103.048
X98.958Y-96.393
X98.958Y-102.819
T2
X55.07Y-129.74
X58.07Y-105.74
X58.07Y-114.74
X58.07Y-129.74
X61.07Y-87.74
X61.07Y-90.74
X61.07Y-93.74
X61.07Y-129.74
X64.07Y-126.74
X64.07Y-129.74
X67.07Y-129.74
X70.07Y-99.74
X70.07Y-129.74
X73.07Y-123.74
X73.07Y-126.74
X73.07Y-129.74
X76.07Y-123.74
X76.07Y-126.74
X76.07Y-129.74
X79.07Y-111.74
X79.07Y-123.74
X79.07Y-129.74
X82.07Y-108.74
X82.07Y-123.74
X82.07Y-126.74
X82.07Y-129.74
X85.07Y-129.74
X88.07Y-114.74
X88.07Y-117.74
X88.07Y-129.74
X91.07Y-126.74
X91.07Y-129.74
X94.07Y-117.74
X94.07Y-120.74
X94.07Y-123.74
X94.07Y-126.74
X94.07Y-129.74
X97.07Y-114.74
X97.07Y-117.74
X97.07Y-120.74
X97.07Y-123.74
X97.07Y-126.74
X97.07Y-129.74
X100.07Y-111.74
X100.07Y-114.74
X100.07Y-117.74
X100.07Y-120.74
X100.07Y-123.74
X100.07Y-126.74
X100.07Y-129.74
X103.07Y-81.74
X103.07Y-111.74
X103.07Y-114.74
X103.07Y-117.74
X103.07Y-120.74
X103.07Y-123.74
X103.07Y-126.74
X103.07Y-129.74
X106.07Y-81.74
X106.07Y-84.74
X106.07Y-102.74
X106.07Y-111.74
X106.07Y-114.74
X106.07Y-117.74
X106.07Y-120.74
X106.07Y-123.74
X106.07Y-126.74
X106.07Y-129.74
X109.07Y-81.74
X109.07Y-84.74
X109.07Y-87.74
X109.07Y-102.74
X109.07Y-111.74
X109.07Y-114.74
X109.07Y-117.74
X109.07Y-120.74
X109.07Y-123.74
X109.07Y-126.74
X109.07Y-129.74
X112.07Y-81.74
X112.07Y-84.74
X112.07Y-87.74
X112.07Y-90.74
X112.07Y-108.74
X112.07Y-111.74
X112.07Y-114.74
X112.07Y-123.74
X112.07Y-126.74
X112.07Y-129.74
X115.07Y-81.74
X115.07Y-84.74
X115.07Y-87.74
X115.07Y-90.74
X115.07Y-108.74
X115.07Y-111.74
X115.07Y-126.74
X115.07Y-129.74
X118.07Y-81.74
X118.07Y-84.74
X118.07Y-87.74
X118.07Y-90.74
X118.07Y-102.74
X118.07Y-105.74
X118.07Y-108.74
X118.07Y-111.74
X118.07Y-126.74
X118.07Y-129.74
X121.07Y-81.74
X121.07Y-84.74
X121.07Y-87.74
X121.07Y-90.74
X121.07Y-93.74
X121.07Y-105.74
X121.07Y-108.74
X121.07Y-111.74
X121.07Y-126.74
X121.07Y-129.74
X124.07Y-81.74
X124.07Y-84.74
X124.07Y-87.74
X124.07Y-108.74
X124.07Y-111.74
X124.07Y-114.74
X124.07Y-117.74
X124.07Y-120.74
X124.07Y-123.74
X124.07Y-126.74
X124.07Y-129.74
X127.07Y-81.74
X127.07Y-84.74
X127.07Y-87.74
X127.07Y-90.74
X127.07Y-93.74
X127.07Y-108.74
X127.07Y-111.74
X127.07Y-114.74
X127.07Y-117.74
X127.07Y-120.74
X127.07Y-123.74
X127.07Y-126.74
X127.07Y-129.74
T3
X57.15Y-102.87
X57.15Y-110.49
X67.31Y-119.38
X74.93Y-119.38
X78.74Y-119.38
X78.74Y-127.0
X105.41Y-97.79
X105.41Y-105.41
X107.95Y-100.33
X107.95Y-107.95
T4
X91.44Y-114.3
X91.44Y-116.84
X91.44Y-119.38
X91.44Y-121.92
X91.44Y-124.46
X113.538Y-118.11
X113.538Y-120.65
T5
X60.884Y-96.342
X60.884Y-103.962
X63.424Y-96.342
X63.424Y-103.962
X65.964Y-96.342
X65.964Y-103.962
X68.504Y-96.342
X68.504Y-103.962
X68.58Y-124.46
X68.58Y-126.46
X71.044Y-96.342
X71.044Y-103.962
X73.584Y-96.342
X73.584Y-103.962
X74.93Y-114.3
X76.124Y-96.342
X76.124Y-103.962
X76.19Y-106.69
X76.93Y-114.3
X78.664Y-96.342
X78.664Y-103.962
X78.69Y-106.69
X81.204Y-96.342
X81.204Y-103.962
X83.744Y-96.342
X83.744Y-103.962
X86.284Y-96.342
X86.284Y-103.962
X86.284Y-123.012
X86.284Y-125.512
X88.824Y-96.342
X88.824Y-103.962
X91.364Y-96.342
X91.364Y-103.962
X93.904Y-96.342
X93.904Y-103.962
X101.6Y-105.41
X101.6Y-107.91
T6
X63.5Y-85.09
X63.5Y-87.63
X66.04Y-85.09
X66.04Y-87.63
X68.58Y-85.09
X68.58Y-87.63
X71.12Y-85.09
X71.12Y-87.63
X73.66Y-85.09
X73.66Y-87.63
X83.82Y-85.09
X83.82Y-87.63
X86.36Y-85.09
X86.36Y-87.63
X88.9Y-85.09
X88.9Y-87.63
X91.44Y-85.09
X91.44Y-87.63
X93.98Y-85.09
X93.98Y-87.63
X124.46Y-91.44
T7
X63.5Y-113.355
X66.04Y-113.355
X68.58Y-113.355
T8
X120.65Y-116.68
X120.65Y-122.08
T6
X54.99Y-124.65G85X54.99Y-122.65
G05
X58.69Y-120.65G85X60.69Y-120.65
G05
X58.69Y-126.65G85X60.69Y-126.65
G05
T0
M30
